<?xml version="1.0" standalone="no"?>
<!DOCTYPE svg PUBLIC "-//W3C//DTD SVG 20010904//EN"
 "http://www.w3.org/TR/2001/REC-SVG-20010904/DTD/svg10.dtd">
<svg version="1.0" xmlns="http://www.w3.org/2000/svg"
 width="2044.000000pt" height="2044.000000pt" viewBox="0 0 2044.000000 2044.000000"
 preserveAspectRatio="xMidYMid meet">
<metadata>
Created by potrace 1.14, written by Peter Selinger 2001-2017
</metadata>
<g transform="translate(0.000000,2044.000000) scale(0.100000,-0.100000)"
fill="#000000" stroke="none">
<path d="M8766 13942 c-3 -5 -18 -8 -33 -6 -15 1 -37 -6 -51 -17 -13 -10 -28
-16 -32 -14 -5 3 -11 1 -15 -4 -3 -6 -13 -7 -22 -4 -12 5 -14 3 -8 -7 6 -10 4
-12 -9 -7 -14 5 -17 3 -12 -8 4 -10 -3 -17 -22 -22 -28 -7 -54 -32 -45 -46 2
-4 1 -7 -4 -6 -22 4 -32 -2 -27 -16 4 -8 -1 -17 -10 -21 -9 -3 -13 -11 -9 -17
4 -6 0 -8 -11 -4 -9 4 -15 3 -12 -2 3 -5 -1 -14 -9 -21 -12 -10 -13 -16 -3
-28 10 -12 10 -14 1 -8 -8 4 -23 -4 -39 -19 -22 -22 -24 -29 -13 -36 11 -7 11
-9 1 -9 -7 0 -10 -4 -7 -10 4 -6 -1 -7 -11 -3 -13 5 -16 3 -11 -10 4 -11 2
-14 -8 -11 -10 4 -13 0 -10 -15 2 -12 0 -19 -4 -16 -5 3 -12 -2 -15 -11 -3 -8
-10 -13 -15 -10 -5 3 -7 -7 -6 -23 2 -21 -2 -28 -14 -27 -9 0 -15 -5 -13 -13
1 -7 -2 -19 -8 -25 -5 -7 -7 -16 -3 -20 4 -4 -1 -4 -10 0 -13 5 -20 1 -24 -15
-3 -11 -9 -19 -13 -16 -5 3 -12 0 -16 -6 -4 -8 -3 -9 4 -5 7 4 12 2 12 -3 0
-6 -5 -11 -11 -11 -6 0 -9 -7 -6 -14 4 -10 1 -13 -7 -10 -16 6 -29 -22 -19
-39 4 -7 -2 -5 -12 3 -17 14 -18 14 -6 -8 6 -12 8 -22 4 -21 -20 3 -34 -2 -28
-10 3 -5 1 -12 -5 -16 -6 -4 -8 -11 -5 -16 6 -8 -8 -13 -27 -10 -4 0 -5 -8 -3
-19 2 -11 -1 -20 -6 -20 -6 0 -7 -5 -3 -12 5 -7 2 -9 -9 -5 -12 4 -14 2 -10
-10 5 -12 3 -14 -7 -8 -10 6 -12 4 -7 -8 3 -10 2 -17 -4 -17 -6 0 -7 -4 -4
-10 6 -9 -8 -14 -28 -11 -5 1 -6 -3 -2 -9 3 -5 1 -10 -6 -10 -7 0 -9 -3 -6 -7
4 -3 -1 -12 -11 -19 -14 -11 -14 -13 -2 -14 12 0 11 -3 -3 -11 -9 -6 -15 -14
-12 -20 4 -5 -2 -6 -11 -2 -12 4 -15 3 -10 -5 4 -7 2 -12 -3 -12 -6 0 -10 -3
-10 -7 3 -21 -2 -33 -15 -33 -21 0 -31 -21 -15 -31 11 -7 10 -9 -4 -9 -10 0
-16 -4 -13 -8 3 -5 -4 -16 -15 -25 -10 -9 -19 -24 -19 -32 0 -8 -5 -14 -12
-12 -12 2 -14 -4 -17 -40 0 -9 -4 -13 -8 -10 -4 4 -19 -5 -35 -20 -21 -20 -25
-30 -17 -40 11 -12 2 -18 -23 -14 -4 0 -4 -7 -1 -16 5 -12 3 -14 -7 -8 -10 6
-12 4 -7 -9 5 -12 0 -19 -16 -26 -12 -5 -16 -9 -9 -9 7 -1 10 -6 7 -11 -5 -8
-12 -7 -23 2 -13 11 -14 10 -4 -9 10 -17 9 -22 -4 -27 -10 -4 -14 -13 -10 -22
3 -9 2 -12 -5 -9 -6 4 -13 -2 -16 -14 -3 -12 -9 -21 -14 -21 -5 0 -9 -6 -9
-14 0 -8 -5 -18 -12 -22 -7 -5 -8 -3 -3 6 5 8 4 11 -3 6 -6 -4 -9 -13 -6 -20
3 -8 0 -17 -5 -21 -6 -3 -9 -10 -6 -15 3 -4 -5 -6 -17 -3 -19 4 -20 3 -8 -6
11 -8 12 -11 2 -11 -7 0 -10 -4 -7 -10 3 -5 0 -7 -9 -4 -11 4 -14 -1 -12 -20
2 -14 0 -23 -5 -21 -4 3 -10 1 -14 -5 -4 -6 -11 -7 -17 -4 -6 4 -6 -1 1 -14
14 -26 14 -32 0 -32 -5 0 -7 6 -4 13 4 6 0 4 -9 -7 -8 -10 -20 -15 -27 -10 -8
5 -9 3 -3 -7 13 -21 14 -38 2 -46 -7 -4 -8 -1 -4 8 4 8 0 5 -9 -6 -9 -11 -20
-19 -25 -18 -4 1 -6 -7 -3 -17 3 -12 0 -20 -6 -20 -7 0 -9 -5 -6 -11 4 -6 0
-9 -11 -7 -18 3 -20 -1 -23 -38 0 -8 -5 -12 -11 -9 -5 3 -10 -1 -10 -10 0 -8
-7 -18 -15 -21 -8 -4 -12 -10 -9 -15 3 -5 1 -9 -5 -9 -6 0 -7 -7 -4 -17 5 -12
3 -14 -7 -8 -10 6 -12 4 -7 -8 4 -12 2 -14 -10 -10 -10 4 -14 2 -9 -5 3 -6 2
-13 -4 -17 -6 -4 -8 -10 -5 -15 3 -4 -3 -14 -13 -21 -16 -13 -16 -12 -2 6 15
20 14 20 -8 1 -15 -13 -19 -22 -11 -27 8 -4 7 -9 -2 -15 -20 -12 -40 -14 -34
-3 4 5 -1 6 -9 3 -9 -3 -16 -11 -16 -18 0 -6 -4 -5 -9 3 -5 8 -16 11 -26 7
-16 -6 -16 -4 -4 11 11 15 10 15 -9 -1 -13 -11 -22 -14 -22 -7 0 8 -5 9 -19 2
-10 -6 -21 -8 -24 -5 -10 10 -42 11 -54 2 -7 -6 -14 -5 -18 2 -5 8 -11 8 -21
-1 -11 -9 -14 -8 -14 2 0 12 -2 12 -9 0 -6 -9 -10 -10 -16 -2 -5 9 -10 9 -21
0 -8 -6 -14 -7 -14 -2 0 11 -29 11 -48 -1 -7 -4 -12 -2 -12 6 0 10 -2 10 -9
-1 -6 -9 -10 -10 -16 -2 -5 9 -10 9 -20 1 -8 -7 -15 -7 -19 -1 -7 11 -25 9
-45 -4 -10 -5 -16 -4 -19 3 -3 9 -9 9 -24 1 -16 -8 -19 -8 -13 1 6 9 2 9 -14
1 -16 -9 -21 -9 -21 0 0 8 -5 7 -17 -2 -14 -12 -16 -12 -9 1 4 8 1 7 -7 -3
-13 -16 -15 -16 -21 -1 -5 13 -9 14 -20 5 -10 -9 -16 -9 -21 -1 -5 8 -11 8
-21 -1 -11 -9 -14 -9 -14 1 0 10 -3 10 -15 0 -12 -10 -15 -10 -15 1 0 12 -2
12 -9 0 -5 -7 -11 -9 -14 -4 -7 11 -37 11 -55 -1 -7 -4 -12 -2 -12 4 0 8 -6 7
-21 -1 -16 -8 -20 -8 -14 1 6 9 2 9 -14 1 -16 -9 -21 -9 -21 0 0 8 -5 7 -17
-2 -14 -12 -16 -12 -9 1 4 8 1 7 -7 -3 -13 -16 -15 -16 -21 -1 -5 13 -9 14
-21 4 -11 -9 -15 -9 -15 -1 0 9 -5 9 -20 1 -15 -8 -20 -8 -20 1 0 8 -4 8 -15
-1 -12 -10 -15 -10 -15 1 0 12 -2 12 -9 0 -5 -7 -11 -9 -14 -4 -7 10 -67 10
-85 -1 -7 -4 -12 -2 -12 6 0 10 -2 10 -9 -1 -6 -9 -10 -10 -16 -2 -5 9 -10 9
-20 1 -10 -8 -14 -7 -18 2 -4 10 -6 10 -6 -1 -1 -10 -4 -11 -15 -2 -9 8 -16 8
-20 2 -4 -6 -13 -8 -21 -4 -9 3 -15 -1 -15 -8 0 -12 -2 -12 -9 0 -5 8 -16 11
-26 7 -16 -6 -16 -4 -4 11 11 15 10 15 -9 -1 -13 -11 -22 -14 -22 -7 0 8 -5 9
-19 2 -10 -6 -21 -8 -24 -5 -10 10 -42 11 -54 2 -7 -6 -14 -5 -18 2 -5 8 -11
8 -21 -1 -11 -9 -14 -8 -14 2 0 12 -2 12 -9 0 -6 -9 -10 -10 -16 -2 -5 9 -10
9 -21 0 -8 -6 -14 -7 -14 -2 0 11 -29 11 -48 -1 -7 -4 -12 -2 -12 6 0 10 -2
10 -9 -1 -6 -9 -10 -10 -16 -2 -5 9 -10 9 -20 1 -8 -7 -15 -7 -19 -1 -7 11
-25 9 -45 -4 -10 -5 -16 -4 -19 3 -3 9 -9 9 -24 1 -16 -8 -19 -8 -13 1 6 9 2
9 -14 1 -16 -9 -21 -9 -21 0 0 8 -5 7 -17 -2 -14 -12 -16 -12 -9 1 4 8 1 7 -7
-3 -13 -16 -15 -16 -21 -1 -5 13 -9 14 -20 5 -10 -9 -16 -9 -21 -1 -5 8 -11 8
-21 -1 -11 -9 -14 -9 -14 1 0 10 -3 10 -15 0 -12 -10 -15 -10 -15 1 0 12 -2
12 -9 0 -5 -7 -11 -9 -14 -4 -7 10 -67 10 -85 -1 -7 -4 -12 -2 -12 6 0 10 -2
10 -9 -1 -6 -9 -10 -10 -16 -2 -5 9 -10 9 -20 1 -10 -8 -14 -7 -18 2 -4 10 -6
10 -6 -1 -1 -10 -4 -11 -15 -2 -9 8 -16 8 -20 2 -4 -6 -13 -8 -21 -4 -9 3 -15
-1 -15 -8 0 -12 -2 -12 -9 0 -5 8 -16 11 -26 7 -16 -6 -16 -4 -4 11 11 15 10
15 -9 -1 -13 -11 -22 -14 -22 -7 0 8 -5 9 -18 2 -11 -6 -24 -6 -35 1 -12 6
-22 6 -32 -2 -10 -8 -15 -8 -20 1 -6 8 -10 7 -16 -2 -8 -12 -11 -11 -19 1 -8
12 -10 12 -10 1 0 -11 -3 -11 -15 -1 -12 10 -15 10 -15 -1 0 -10 -3 -10 -11
-2 -8 8 -20 8 -35 3 -17 -7 -24 -6 -24 3 0 8 -3 8 -9 -2 -6 -9 -10 -10 -16 -2
-5 9 -10 9 -21 0 -11 -9 -14 -8 -14 2 0 12 -2 12 -9 0 -6 -9 -10 -10 -16 -2
-5 9 -10 9 -21 0 -11 -9 -14 -8 -14 2 0 12 -2 12 -9 0 -6 -9 -10 -10 -16 -2
-5 9 -10 9 -21 0 -11 -9 -14 -8 -14 2 0 12 -2 12 -9 0 -6 -9 -10 -10 -16 -2
-5 9 -10 9 -20 1 -10 -8 -14 -7 -18 2 -4 10 -6 10 -6 -1 -1 -10 -4 -11 -15 -2
-9 8 -16 8 -20 2 -4 -6 -13 -8 -21 -4 -9 3 -15 -1 -15 -8 0 -12 -2 -12 -9 0
-5 8 -16 11 -26 7 -16 -6 -16 -4 -4 11 11 15 10 15 -9 -1 -13 -11 -22 -14 -22
-7 0 8 -5 9 -19 2 -10 -6 -21 -8 -24 -5 -10 10 -42 11 -54 2 -7 -6 -14 -5 -18
2 -5 8 -11 8 -21 -1 -11 -9 -14 -8 -14 2 0 12 -2 12 -9 0 -6 -9 -10 -10 -16
-2 -5 9 -10 9 -21 0 -8 -6 -14 -7 -14 -2 0 11 -29 11 -48 -1 -7 -4 -12 -2 -12
6 0 10 -2 10 -9 -1 -6 -9 -10 -10 -16 -2 -5 9 -10 9 -20 1 -10 -8 -14 -7 -18
2 -4 10 -6 10 -6 -1 -1 -10 -4 -11 -15 -2 -10 8 -16 9 -21 1 -3 -6 -11 -7 -17
-4 -6 4 -14 0 -19 -7 -7 -11 -9 -10 -9 4 0 15 -3 16 -20 7 -15 -8 -20 -8 -20
2 0 10 -2 10 -9 -1 -6 -9 -10 -10 -16 -2 -5 9 -10 9 -21 0 -11 -9 -14 -9 -14
1 0 10 -3 10 -15 0 -12 -10 -15 -10 -15 1 0 12 -2 12 -9 0 -6 -9 -11 -10 -15
-2 -5 8 -17 5 -37 -9 -19 -14 -29 -17 -29 -9 0 10 -3 10 -12 1 -8 -8 -17 -8
-31 -1 -12 7 -17 7 -13 1 7 -12 -17 -22 -43 -17 -11 2 -26 -4 -33 -13 -12 -16
-11 -16 7 -2 18 14 19 14 7 -2 -8 -9 -20 -14 -28 -11 -8 3 -14 0 -14 -6 0 -6
-6 -10 -12 -8 -7 1 -12 -3 -11 -9 1 -6 -9 -16 -23 -23 -20 -9 -24 -9 -18 1 5
10 3 10 -7 0 -8 -7 -14 -18 -14 -25 -1 -7 -7 -11 -15 -9 -8 2 -12 0 -8 -4 4
-4 2 -14 -5 -22 -10 -13 -9 -14 2 -7 10 6 12 4 7 -4 -5 -7 -14 -10 -21 -7 -9
3 -12 -2 -10 -15 4 -18 2 -19 -12 -7 -12 9 -15 9 -9 1 4 -7 3 -13 -3 -13 -5 0
-8 -11 -7 -25 2 -13 0 -24 -3 -23 -21 2 -30 -6 -36 -32 -4 -18 -13 -30 -22
-30 -9 0 -13 -3 -10 -7 4 -3 -1 -12 -11 -19 -11 -9 -13 -13 -4 -14 7 0 10 -5
7 -10 -4 -6 -11 -8 -16 -5 -5 4 -9 -1 -9 -9 0 -9 -5 -16 -11 -16 -6 0 -8 -7
-5 -17 4 -10 4 -14 0 -11 -7 8 -38 -20 -40 -36 0 -6 -2 -17 -2 -25 -1 -8 -5
-12 -8 -8 -10 9 -32 -16 -27 -31 4 -8 0 -10 -13 -5 -13 5 -15 3 -9 -7 5 -8 2
-17 -7 -24 -8 -6 -16 -15 -17 -21 -1 -5 -10 -8 -19 -7 -13 3 -14 1 -5 -8 13
-14 6 -43 -8 -34 -8 5 -13 -9 -10 -28 0 -5 -2 -7 -7 -7 -19 3 -25 -2 -12 -11
13 -8 12 -10 -2 -10 -10 0 -17 -6 -15 -12 1 -8 -6 -12 -18 -10 -16 2 -17 1 -6
-7 13 -8 11 -13 -10 -31 -13 -12 -17 -19 -9 -15 8 4 6 -1 -4 -9 -11 -9 -16
-16 -10 -16 5 0 -6 -14 -24 -30 -21 -18 -31 -34 -26 -41 4 -8 3 -9 -4 -5 -7 4
-12 1 -12 -9 0 -10 -5 -13 -12 -9 -8 5 -8 1 2 -12 8 -10 10 -16 6 -12 -13 11
-36 -11 -36 -33 0 -17 -10 -23 -31 -21 -3 1 -5 -10 -3 -24 1 -14 0 -23 -3 -20
-3 3 -14 -4 -24 -16 -16 -17 -17 -24 -6 -36 10 -13 9 -14 -1 -8 -20 12 -69
-54 -56 -76 4 -7 3 -8 -4 -4 -7 4 -12 3 -12 -3 0 -5 -9 -12 -19 -16 -13 -4
-18 -13 -16 -25 2 -11 -1 -23 -7 -26 -7 -4 -8 -2 -4 4 4 7 4 12 1 12 -3 0 -13
-16 -21 -35 -8 -19 -19 -35 -25 -35 -5 0 -8 -4 -4 -9 3 -5 1 -12 -5 -16 -5 -3
-10 -1 -10 6 0 7 -3 9 -6 6 -4 -4 -1 -15 7 -24 7 -10 9 -15 4 -10 -10 9 -45
-21 -45 -40 0 -7 -4 -13 -10 -13 -5 0 -6 -7 -3 -17 4 -9 2 -14 -3 -11 -5 3
-18 -4 -28 -15 -19 -20 -19 -20 0 -13 12 4 7 -4 -13 -22 -17 -17 -30 -32 -27
-35 3 -3 -4 -8 -15 -12 -17 -5 -19 -10 -11 -26 6 -11 7 -19 3 -18 -23 4 -35
-2 -29 -17 3 -8 2 -13 -2 -11 -4 3 -18 -10 -32 -27 -19 -25 -20 -28 -4 -16 12
9 10 6 -4 -7 -13 -13 -18 -23 -11 -23 7 0 3 -8 -8 -17 -11 -10 -23 -28 -27
-40 -4 -13 -13 -23 -20 -23 -18 0 -47 -35 -44 -51 2 -8 -3 -13 -11 -11 -12 3
-12 1 -1 -13 7 -9 9 -15 4 -14 -23 4 -33 -3 -29 -20 2 -11 -4 -26 -13 -33 -16
-12 -16 -11 -2 7 14 19 14 19 -2 6 -10 -7 -18 -20 -18 -27 0 -8 -6 -14 -12
-14 -9 0 -8 -4 2 -10 13 -8 13 -10 -2 -10 -9 0 -20 -5 -24 -12 -5 -7 -2 -9 7
-4 8 4 6 1 -5 -8 -10 -8 -15 -19 -12 -24 3 -5 -2 -16 -12 -23 -16 -13 -16 -12
-2 6 15 20 14 20 -8 1 -18 -16 -20 -22 -9 -34 7 -10 8 -13 1 -9 -7 4 -15 0
-18 -9 -3 -8 -11 -12 -16 -9 -6 4 -10 3 -9 -2 4 -21 -2 -33 -16 -33 -9 0 -12
-6 -8 -17 5 -12 3 -14 -8 -8 -12 7 -12 6 0 -9 13 -16 13 -17 -5 -14 -11 2 -18
-2 -16 -9 1 -7 -4 -13 -12 -13 -9 0 -12 -7 -9 -20 4 -14 1 -20 -8 -18 -8 2
-13 -4 -13 -14 1 -10 -3 -15 -9 -11 -6 4 -8 0 -4 -11 4 -10 3 -15 -3 -11 -6 3
-10 1 -10 -5 0 -6 -5 -8 -12 -4 -9 5 -8 2 1 -9 12 -15 12 -17 -2 -11 -13 4
-15 1 -12 -16 2 -13 2 -20 -2 -16 -9 9 -54 -56 -49 -71 3 -8 -1 -10 -11 -6
-12 5 -14 3 -8 -7 6 -9 4 -12 -7 -8 -8 4 -15 1 -16 -5 -2 -27 -9 -47 -17 -54
-4 -5 -4 -1 0 7 8 13 7 13 -9 1 -9 -8 -15 -20 -12 -28 3 -8 1 -11 -4 -8 -6 3
-10 0 -10 -8 0 -8 -10 -22 -23 -31 -12 -9 -15 -14 -7 -11 8 4 6 -1 -4 -9 -15
-12 -16 -16 -5 -17 8 0 4 -5 -9 -11 -13 -6 -21 -17 -18 -24 3 -8 1 -16 -5 -19
-5 -4 -7 -10 -4 -15 3 -5 -4 -7 -15 -5 -11 2 -18 0 -15 -6 4 -5 1 -9 -6 -9 -8
0 -8 -4 1 -16 11 -12 11 -15 -1 -12 -8 2 -13 -4 -13 -14 1 -10 -2 -16 -5 -13
-13 8 -51 -26 -51 -45 0 -11 -9 -24 -20 -30 -11 -6 -20 -20 -20 -30 0 -11 -4
-20 -9 -20 -5 0 -18 -16 -30 -36 -12 -19 -15 -32 -9 -28 9 5 8 2 -1 -10 -11
-13 -16 -14 -24 -4 -6 9 -7 8 -3 -4 7 -22 -3 -50 -15 -42 -5 3 -9 -2 -9 -10 0
-8 -9 -18 -21 -21 -16 -5 -18 -9 -8 -21 10 -12 10 -15 -1 -12 -8 2 -14 -2 -15
-9 0 -6 -4 -15 -9 -20 -5 -5 -6 -3 -2 5 7 11 4 11 -12 1 -17 -11 -18 -15 -6
-26 16 -17 19 -27 4 -18 -12 7 -42 -20 -33 -29 4 -3 0 -6 -7 -6 -7 0 -10 -3
-7 -7 4 -3 -2 -12 -13 -20 -11 -8 -20 -21 -20 -29 0 -8 -6 -14 -12 -14 -9 0
-8 -4 2 -10 13 -9 7 -14 -12 -11 -8 1 -12 -15 -9 -32 0 -4 -2 -6 -6 -6 -20 3
-26 -2 -13 -11 13 -8 12 -10 -3 -10 -11 0 -15 -4 -11 -12 5 -7 2 -9 -9 -5 -12
4 -14 2 -10 -10 4 -10 2 -14 -4 -10 -6 4 -13 -6 -17 -23 -3 -17 -11 -29 -18
-28 -7 2 -12 -3 -10 -9 1 -7 -3 -13 -9 -13 -6 0 -8 -7 -5 -16 3 -8 2 -12 -4
-9 -6 3 -10 -1 -10 -9 0 -8 -5 -18 -12 -22 -7 -4 -8 -3 -4 4 4 7 5 12 2 12 -3
0 -10 -10 -17 -21 -9 -17 -8 -20 3 -13 10 6 11 5 1 -8 -7 -8 -10 -17 -7 -20 3
-3 -2 -5 -12 -5 -9 1 -19 -4 -22 -12 -3 -9 0 -11 9 -6 8 5 6 -1 -5 -13 -10
-12 -24 -19 -30 -15 -6 4 -5 -1 3 -10 12 -15 12 -17 -2 -11 -12 4 -15 1 -12
-15 2 -12 -1 -20 -8 -18 -7 1 -11 -4 -9 -10 1 -7 -3 -13 -9 -13 -5 0 -7 -4 -4
-10 3 -6 -1 -7 -9 -4 -14 6 -21 -5 -17 -28 0 -5 -4 -8 -10 -8 -5 0 -7 -5 -3
-12 5 -8 2 -9 -10 -5 -10 4 -15 3 -11 -3 3 -6 2 -10 -4 -10 -5 0 -8 -8 -6 -17
3 -22 -24 -55 -38 -46 -6 4 -8 0 -4 -10 3 -9 2 -19 -4 -22 -5 -4 -6 -11 -3
-17 4 -7 2 -8 -4 -4 -7 4 -12 2 -12 -4 0 -6 -5 -8 -12 -4 -8 5 -9 2 -5 -9 4
-10 2 -17 -4 -17 -6 0 -9 -7 -5 -15 3 -8 2 -14 -2 -14 -20 3 -33 -2 -27 -11 3
-5 0 -10 -7 -10 -9 0 -9 -3 2 -10 13 -8 12 -10 -3 -10 -11 0 -15 -4 -11 -12 5
-7 2 -9 -9 -5 -12 4 -14 2 -10 -10 4 -10 2 -14 -4 -10 -6 4 -14 -4 -17 -18 -4
-17 -11 -23 -19 -18 -7 4 -5 -2 3 -12 9 -11 10 -16 3 -11 -8 4 -13 2 -13 -5 0
-8 -5 -7 -17 2 -15 13 -15 12 -4 -9 10 -20 9 -23 -11 -32 -13 -5 -17 -9 -10
-9 7 -1 10 -6 7 -11 -4 -6 -11 -8 -16 -5 -5 4 -9 -1 -9 -10 0 -10 5 -13 13 -9
8 5 8 2 -2 -9 -15 -19 -26 -23 -15 -5 4 7 3 8 -4 4 -7 -4 -12 -14 -12 -22 0
-8 -3 -13 -7 -13 -19 3 -27 -2 -16 -9 10 -6 10 -12 -3 -28 -8 -10 -12 -12 -8
-4 4 8 -5 2 -19 -13 -15 -15 -27 -35 -27 -43 0 -7 -5 -14 -12 -14 -6 0 -9 -3
-5 -6 3 -4 -1 -13 -9 -21 -8 -8 -12 -18 -9 -23 3 -5 -4 -11 -15 -15 -17 -6
-25 -23 -21 -48 0 -4 -4 -6 -11 -5 -7 2 -12 -3 -13 -10 0 -8 -8 -20 -18 -27
-13 -10 -15 -14 -5 -18 9 -4 8 -6 -3 -6 -9 -1 -24 -13 -34 -27 -9 -15 -12 -23
-6 -20 7 4 9 1 5 -8 -3 -9 -11 -14 -17 -13 -7 1 -11 -4 -10 -10 2 -7 -8 -16
-22 -19 -24 -6 -25 -7 -8 -21 10 -8 13 -12 7 -9 -10 5 -62 -41 -56 -50 7 -12
0 -24 -10 -18 -8 5 -7 0 2 -11 9 -11 10 -16 3 -11 -8 4 -13 2 -13 -4 0 -6 -4
-8 -10 -5 -5 3 -10 -3 -10 -14 0 -12 -5 -21 -11 -21 -5 0 -7 -4 -4 -10 3 -6
-1 -10 -9 -10 -8 0 -18 -5 -22 -12 -4 -7 -3 -8 4 -4 7 4 12 3 12 -3 0 -5 -8
-15 -17 -20 -10 -6 -14 -11 -9 -11 6 0 2 -6 -7 -12 -9 -7 -17 -20 -19 -28 -2
-8 -16 -23 -31 -33 -15 -9 -25 -22 -22 -27 3 -6 0 -10 -7 -11 -7 0 -4 -4 7 -9
17 -7 17 -9 3 -9 -10 -1 -18 -6 -18 -12 0 -5 -6 -7 -13 -3 -7 5 -7 2 2 -10 8
-9 10 -16 5 -15 -21 4 -24 -2 -13 -22 6 -12 7 -19 1 -15 -5 3 -13 -1 -16 -10
-3 -8 -2 -12 4 -9 6 3 10 1 10 -4 0 -6 -5 -11 -11 -11 -6 0 -8 -7 -5 -16 3 -8
2 -13 -2 -10 -5 3 -8 -26 -8 -64 1 -50 4 -66 13 -59 8 7 11 -2 10 -33 -2 -30
2 -42 10 -40 16 3 17 -10 3 -24 -8 -8 -5 -15 7 -25 17 -13 17 -13 3 6 -14 19
-14 19 2 6 10 -7 16 -17 13 -21 -3 -5 -1 -11 5 -15 6 -4 8 -11 5 -16 -4 -5 1
-9 9 -9 8 0 18 -10 21 -21 6 -17 9 -19 17 -8 7 10 8 8 5 -9 -3 -13 -1 -20 5
-16 5 3 16 -3 24 -15 8 -12 22 -21 30 -21 8 0 14 -5 14 -11 0 -5 4 -7 10 -4 5
3 10 1 10 -6 0 -8 4 -8 15 1 13 10 15 9 16 -11 0 -21 1 -22 8 -5 7 17 8 18 14
3 3 -9 13 -14 20 -11 8 3 17 -2 21 -12 5 -13 9 -14 20 -5 10 9 16 9 21 1 5 -8
10 -8 20 0 10 8 15 8 20 0 5 -8 10 -8 20 0 9 8 15 8 20 0 3 -6 12 -7 18 -3 17
10 77 10 77 0 0 -5 6 -5 13 2 10 8 17 7 27 -2 7 -6 10 -7 7 -1 -4 7 5 11 23
11 17 0 27 -5 23 -10 -3 -6 -1 -7 5 -3 18 11 52 16 52 8 0 -4 9 -8 19 -8 11 0
17 4 15 8 -3 4 -1 8 5 8 5 0 12 -4 16 -10 3 -5 12 -7 20 -4 8 4 12 11 8 18 -5
8 -3 8 8 0 8 -7 53 -11 117 -10 63 1 102 -3 102 -9 0 -5 5 -3 10 5 8 12 10 12
10 1 0 -11 3 -11 17 0 13 11 17 11 20 2 3 -7 9 -13 14 -13 6 0 8 3 6 8 -3 4 6
8 19 8 14 1 21 -2 17 -9 -3 -6 -1 -7 5 -3 18 11 52 16 52 8 0 -4 9 -8 19 -8
11 0 17 4 15 8 -3 4 -1 8 5 8 5 0 12 -4 16 -10 3 -5 12 -7 20 -4 8 4 12 11 9
16 -4 6 2 5 14 -1 11 -6 28 -8 36 -5 10 4 16 1 16 -7 0 -11 3 -11 10 1 8 12
10 12 10 1 0 -11 3 -11 17 0 13 11 17 11 20 2 3 -7 9 -13 14 -13 6 0 8 3 6 8
-3 4 10 7 29 7 19 0 34 -4 34 -8 0 -5 5 -5 12 -1 19 12 88 12 88 0 0 -6 5 -4
10 4 9 13 10 13 10 0 0 -12 2 -12 9 -1 6 9 10 10 16 2 5 -9 10 -9 20 -1 10 8
15 8 20 0 5 -8 10 -8 20 0 10 8 15 8 20 0 5 -8 10 -8 20 0 9 8 15 8 20 0 3 -6
12 -7 18 -3 17 10 77 10 77 0 0 -5 6 -5 13 2 10 8 17 7 27 -2 7 -6 10 -7 7 -1
-4 7 5 11 23 11 17 0 27 -5 23 -10 -3 -6 -1 -7 5 -3 18 11 52 16 52 8 0 -4 9
-8 19 -8 11 0 17 4 15 8 -3 4 -1 8 5 8 5 0 12 -4 16 -10 3 -5 12 -7 20 -4 8 4
12 11 8 18 -5 8 -3 8 8 0 8 -7 53 -11 117 -10 63 1 102 -3 102 -9 0 -5 5 -3
10 5 8 12 10 12 10 1 0 -11 3 -11 17 0 13 11 17 11 20 2 3 -7 9 -13 14 -13 6
0 8 3 6 8 -3 4 6 8 19 8 14 1 21 -2 17 -9 -3 -6 -1 -7 5 -3 18 11 52 16 52 8
0 -4 9 -8 19 -8 11 0 17 4 15 8 -3 4 -1 8 5 8 5 0 12 -4 16 -10 3 -5 12 -7 20
-4 8 4 12 11 8 18 -5 8 -3 8 8 0 8 -6 38 -11 66 -10 29 1 53 -3 53 -8 0 -4 6
-3 14 3 10 9 16 9 21 1 5 -8 11 -7 23 2 12 10 16 10 19 1 3 -7 9 -13 14 -13 6
0 8 3 6 8 -3 4 6 8 19 8 14 1 21 -2 17 -9 -3 -6 -1 -7 5 -3 20 12 52 15 52 5
0 -6 5 -7 12 -3 17 10 118 11 118 1 0 -5 6 -4 14 2 10 9 16 9 21 1 5 -8 11 -7
23 2 12 10 16 10 19 1 3 -7 9 -13 14 -13 6 0 8 3 6 8 -3 4 6 8 19 8 14 1 21
-2 17 -9 -3 -6 -1 -7 5 -3 20 12 52 15 52 5 0 -6 5 -7 12 -3 17 10 118 11 118
1 0 -5 6 -4 14 2 10 9 16 9 21 1 5 -8 11 -7 23 2 12 10 16 10 19 1 3 -7 9 -13
14 -13 6 0 8 3 6 8 -3 4 6 8 19 8 14 1 21 -2 17 -9 -3 -6 -1 -7 5 -3 20 12 52
15 52 5 0 -6 5 -7 12 -3 17 10 118 11 118 1 0 -5 6 -4 14 2 10 9 16 9 21 1 5
-8 11 -7 23 2 12 10 16 10 19 1 3 -7 9 -13 14 -13 6 0 8 3 6 8 -3 4 6 8 19 8
14 1 21 -2 17 -9 -3 -6 -1 -7 5 -3 20 12 52 15 52 5 0 -6 5 -7 10 -4 6 4 7 12
3 18 -3 7 3 4 14 -6 14 -13 23 -15 28 -7 5 8 10 8 20 0 10 -8 15 -8 20 0 5 8
10 8 20 0 10 -8 15 -8 20 0 5 8 11 8 19 1 7 -6 16 -8 20 -4 10 10 76 10 76 0
0 -5 6 -5 13 2 10 8 17 7 27 -2 7 -6 10 -7 7 -1 -4 7 5 11 23 11 17 0 27 -5
23 -10 -3 -6 -1 -7 5 -3 18 11 52 16 52 8 0 -4 9 -8 19 -8 11 0 17 4 15 8 -3
4 -1 8 5 8 5 0 12 -4 16 -10 3 -5 12 -7 20 -4 8 4 12 11 8 18 -5 8 -3 8 8 0 8
-7 53 -11 117 -10 63 1 102 -3 102 -9 0 -5 5 -3 10 5 8 12 10 12 10 1 0 -11 3
-11 17 0 13 11 17 11 20 2 3 -7 9 -13 14 -13 6 0 8 3 6 8 -3 4 10 7 29 7 19 0
34 -4 34 -8 0 -5 5 -5 12 -1 19 12 88 12 88 0 0 -6 5 -4 10 4 9 13 10 13 10 0
0 -12 2 -12 9 -1 6 9 10 10 16 2 5 -9 10 -9 20 -1 10 8 15 8 20 0 5 -8 10 -8
20 0 10 8 15 8 20 0 5 -8 10 -8 20 0 9 8 15 8 20 0 3 -6 12 -7 18 -3 17 10 77
10 77 0 0 -5 6 -5 13 2 10 8 17 7 27 -2 7 -6 10 -7 7 -1 -4 7 5 11 23 11 17 0
27 -5 23 -10 -3 -6 -1 -7 5 -3 18 11 52 16 52 8 0 -4 9 -8 19 -8 11 0 17 4 15
8 -3 4 -1 8 5 8 5 0 12 -4 16 -10 3 -5 12 -7 20 -4 8 4 12 11 8 18 -5 8 -3 8
8 0 8 -7 53 -11 117 -10 63 1 102 -3 102 -9 0 -5 5 -3 10 5 8 12 10 12 10 1 0
-11 3 -11 17 0 13 11 17 11 20 2 3 -7 9 -13 14 -13 6 0 8 3 6 8 -3 4 6 8 19 8
14 1 21 -2 17 -9 -3 -6 -1 -7 5 -3 20 12 52 15 52 5 0 -6 7 -6 19 0 10 6 22 7
26 3 5 -4 5 -2 1 5 -3 6 -2 14 4 18 5 3 10 0 10 -7 0 -9 3 -9 10 2 9 13 11 13
21 0 8 -12 12 -12 16 -2 4 10 8 10 21 0 10 -9 13 -9 9 -1 -5 8 0 11 13 10 11
-1 20 -6 20 -12 0 -5 4 -4 9 4 6 9 10 10 16 2 5 -9 10 -9 21 0 11 9 14 8 14
-2 0 -9 3 -10 8 -4 9 12 46 20 39 8 -3 -5 3 -9 14 -9 10 0 19 4 19 9 0 5 6 4
14 -2 10 -8 16 -9 21 -1 3 5 11 10 16 10 6 0 7 -6 3 -13 -6 -9 -5 -9 7 0 12
10 18 10 27 1 9 -9 12 -9 12 0 0 14 21 12 32 -3 5 -6 8 -5 8 4 0 11 3 11 17 0
11 -10 14 -10 9 -1 -8 13 6 17 18 5 11 -11 75 -10 68 2 -3 5 2 4 11 -4 13 -10
17 -10 17 -1 0 9 4 9 17 -1 10 -8 14 -9 10 -2 -5 8 0 11 13 10 11 -1 20 -6 20
-12 0 -5 4 -4 9 4 6 9 10 10 16 2 5 -9 10 -9 21 0 11 9 14 8 14 -2 0 -9 3 -10
8 -4 9 12 46 20 39 8 -3 -5 3 -9 14 -9 10 0 19 4 19 9 0 5 6 4 14 -2 10 -8 16
-9 21 -1 3 5 11 10 16 10 6 0 7 -6 3 -12 -5 -9 -2 -9 9 1 13 10 17 10 17 1 0
-10 3 -10 15 0 11 9 15 9 15 1 0 -7 5 -9 10 -6 6 4 8 12 4 18 -3 7 2 3 10 -7
15 -18 16 -18 16 -2 0 16 1 16 16 1 12 -12 19 -13 24 -5 5 8 10 8 14 2 6 -10
39 -8 70 4 12 4 17 4 13 -2 -3 -5 3 -10 14 -10 10 0 19 4 19 9 0 5 6 4 14 -2
10 -8 16 -9 21 -1 3 5 11 10 16 10 6 0 7 -6 3 -12 -5 -9 -2 -9 9 1 13 10 17
10 17 1 0 -10 3 -10 15 0 11 9 15 9 15 1 0 -7 5 -9 10 -6 6 4 8 12 4 18 -3 7
2 3 10 -7 15 -18 16 -18 16 -2 0 16 1 16 16 1 12 -12 19 -13 24 -5 5 8 10 8
14 2 6 -10 39 -8 70 4 12 4 17 4 13 -2 -3 -5 3 -10 14 -10 10 0 19 4 19 9 0 5
6 4 14 -2 10 -8 16 -9 21 -1 3 5 11 10 16 10 6 0 7 -6 3 -12 -5 -9 -2 -9 9 1
13 10 17 10 17 1 0 -10 3 -10 15 0 11 9 15 9 15 1 0 -7 5 -9 10 -6 6 4 8 12 4
18 -3 7 2 3 10 -7 15 -18 16 -18 16 -2 0 16 1 16 16 1 12 -12 19 -13 24 -5 5
8 10 8 14 2 6 -10 39 -8 70 4 12 4 17 4 13 -2 -3 -5 3 -10 14 -10 10 0 19 4
19 9 0 5 6 4 14 -2 10 -8 16 -9 21 -1 3 5 11 10 16 10 6 0 7 -6 3 -12 -5 -9
-2 -9 9 1 13 10 17 10 17 1 0 -10 3 -10 15 0 11 9 15 9 15 1 0 -7 5 -9 10 -6
6 4 8 12 4 18 -3 7 2 3 10 -7 15 -18 16 -18 16 -2 0 16 1 16 16 1 12 -12 19
-13 24 -5 5 8 10 8 14 2 6 -10 60 -7 78 4 6 4 14 0 19 -7 7 -12 9 -12 9 0 0
11 3 11 15 1 12 -10 15 -10 15 0 0 10 3 10 14 1 11 -9 16 -9 21 0 6 8 10 7 16
-2 7 -12 9 -12 9 0 0 10 3 11 14 2 10 -8 16 -9 21 -1 3 5 11 10 16 10 6 0 7
-6 3 -12 -5 -9 -2 -9 9 1 14 11 17 11 17 0 0 -10 3 -10 12 -1 16 16 31 15 22
0 -6 -10 -4 -10 8 0 13 10 17 10 21 0 4 -11 6 -10 6 0 1 8 6 10 14 5 19 -12
37 -12 37 -1 0 6 7 4 17 -3 10 -8 14 -9 10 -2 -5 8 0 11 13 10 11 -1 20 -6 20
-12 0 -5 4 -4 9 4 6 9 10 10 16 2 5 -9 10 -9 21 0 11 9 14 8 14 -2 0 -9 3 -10
8 -4 9 12 46 20 39 8 -3 -5 3 -9 14 -9 10 0 19 4 19 9 0 5 6 4 14 -2 10 -8 16
-9 21 -1 3 5 11 10 16 10 6 0 7 -6 3 -12 -6 -10 -5 -10 7 -1 12 10 18 10 27 1
9 -9 12 -9 12 0 0 14 21 12 32 -3 5 -6 8 -5 8 4 0 11 3 11 17 0 11 -10 14 -10
9 -1 -8 13 6 17 18 5 11 -11 75 -10 68 2 -3 5 2 4 11 -4 13 -10 17 -10 17 -1
0 9 4 9 17 -1 10 -8 14 -9 10 -2 -5 8 0 11 13 10 11 -1 20 -6 20 -12 0 -5 4
-4 9 4 6 9 10 10 16 2 5 -9 10 -9 21 0 11 9 14 8 14 -2 0 -9 3 -10 8 -4 10 14
45 16 54 2 6 -9 8 -8 8 2 0 11 3 11 15 1 12 -10 15 -10 15 0 0 10 3 10 14 1
11 -9 16 -9 21 0 6 8 10 7 16 -2 7 -12 9 -12 9 0 0 10 3 11 14 2 10 -8 16 -9
21 -1 3 5 11 10 16 10 6 0 7 -6 3 -12 -5 -9 -2 -9 9 1 14 11 17 11 17 0 0 -10
3 -10 12 -1 16 16 31 15 22 0 -5 -9 -2 -9 9 1 14 11 17 11 17 0 0 -12 2 -12 9
0 6 9 11 10 15 2 5 -8 13 -8 28 0 16 9 23 8 29 -2 7 -12 9 -12 9 0 0 11 3 11
15 1 12 -10 15 -10 15 0 0 10 3 10 14 1 11 -9 16 -9 21 0 6 8 10 7 16 -2 7
-12 9 -12 9 0 0 10 3 11 14 2 10 -8 16 -9 21 -1 3 5 11 10 16 10 6 0 7 -6 3
-12 -5 -9 -2 -9 9 1 14 11 17 11 17 0 0 -10 3 -10 12 -1 16 16 31 15 22 0 -6
-10 -4 -10 8 0 13 10 17 10 21 0 4 -11 6 -10 6 0 1 8 6 10 14 5 19 -12 37 -12
37 -1 0 6 7 4 17 -3 10 -8 14 -9 10 -2 -5 8 0 11 13 10 11 -1 20 -6 20 -12 0
-5 4 -4 9 4 6 9 10 10 16 2 5 -9 10 -9 21 0 11 9 14 8 14 -2 0 -9 3 -10 8 -4
9 12 46 20 39 8 -3 -5 3 -9 14 -9 10 0 19 4 19 9 0 5 6 4 14 -2 10 -8 16 -9
21 -1 3 5 11 10 16 10 6 0 7 -6 3 -12 -6 -10 -5 -10 7 -1 12 10 18 10 27 1 9
-9 12 -9 12 0 0 14 21 12 32 -3 5 -6 8 -5 8 4 0 11 3 11 17 0 11 -10 14 -10 9
-1 -8 13 6 17 18 5 11 -11 75 -10 68 2 -3 5 2 4 11 -4 13 -10 17 -10 17 -1 0
9 4 9 17 -1 10 -8 14 -9 10 -2 -5 8 0 11 13 10 11 -1 20 -6 20 -12 0 -5 4 -4
9 4 6 9 10 10 16 2 5 -9 10 -9 21 0 11 9 14 8 14 -2 0 -9 3 -10 8 -4 10 14 45
16 54 2 6 -9 8 -8 8 2 0 11 3 11 15 1 12 -10 15 -10 15 0 0 10 3 10 14 1 11
-9 16 -9 21 0 6 8 10 7 16 -2 7 -12 9 -12 9 0 0 10 3 11 14 2 10 -8 16 -9 21
-1 3 5 11 10 16 10 6 0 7 -6 3 -12 -5 -9 -2 -9 9 1 14 11 17 11 17 0 0 -10 3
-10 12 -1 16 16 31 15 22 0 -5 -9 -2 -9 9 1 14 11 17 11 17 0 0 -12 2 -12 9 0
6 9 11 10 15 2 5 -8 13 -8 28 0 16 9 23 8 29 -2 7 -12 9 -12 9 0 0 11 3 11 15
1 12 -10 15 -10 15 0 0 10 3 10 14 1 11 -9 16 -9 21 0 6 8 10 7 16 -2 7 -12 9
-12 9 0 0 10 3 11 14 2 10 -8 16 -9 21 -1 3 5 11 10 16 10 6 0 7 -6 3 -12 -5
-9 -2 -9 9 1 14 11 17 11 17 0 0 -10 3 -10 12 -1 16 16 31 15 22 0 -6 -10 -4
-10 8 0 13 10 17 10 21 0 4 -11 6 -10 6 0 1 8 6 10 14 5 19 -12 37 -12 37 -1
0 6 7 4 17 -3 10 -8 14 -9 10 -2 -5 8 0 11 13 10 11 -1 20 -6 20 -12 0 -5 4
-4 9 4 6 9 10 10 16 2 5 -9 10 -9 21 0 11 9 14 8 14 -2 0 -9 3 -10 8 -4 9 12
46 20 39 8 -3 -5 3 -9 14 -9 10 0 19 4 19 9 0 5 6 4 14 -2 10 -8 16 -9 21 -1
3 5 11 10 16 10 6 0 7 -6 3 -12 -6 -10 -5 -10 7 -1 12 10 18 10 27 1 9 -9 12
-9 12 1 0 10 3 11 14 2 10 -9 16 -9 21 -1 5 8 11 7 23 -2 12 -10 14 -10 8 0
-4 6 -3 12 3 12 5 0 12 -4 15 -8 3 -5 15 -8 28 -6 13 1 27 3 31 3 5 1 6 5 3
10 -3 5 1 12 10 15 10 4 13 2 8 -7 -5 -7 -1 -6 10 2 12 10 20 11 24 4 5 -8 22
-1 50 18 24 16 40 24 37 18 -5 -8 -1 -8 14 1 12 6 25 18 28 26 3 7 9 12 14 9
4 -3 6 3 4 14 -3 15 1 19 15 16 14 -3 17 1 13 12 -4 11 -2 14 5 9 6 -4 18 4
28 19 9 13 20 22 25 19 5 -3 9 -2 8 3 -4 22 2 34 14 27 7 -5 6 0 -3 11 -9 11
-10 16 -2 11 7 -4 12 -1 12 8 0 9 5 15 12 14 7 -2 12 6 13 17 0 11 7 27 15 35
13 14 16 14 22 0 5 -11 7 -10 7 6 1 12 7 27 15 34 8 6 12 19 9 27 -4 11 -2 14
5 9 7 -4 12 -2 12 4 0 6 6 8 13 4 6 -4 9 -4 5 1 -4 4 -2 15 5 23 10 13 9 14
-1 8 -11 -7 -11 -4 0 13 7 12 19 21 26 21 7 0 10 5 7 10 -3 6 0 10 7 10 11 0
10 2 0 9 -10 6 -8 10 9 14 13 4 20 9 16 13 -4 4 1 13 11 20 14 11 14 13 2 14
-9 0 -4 6 10 13 14 7 24 21 24 30 -1 9 2 17 8 17 5 0 6 5 3 10 -4 6 -1 9 7 8
7 -2 12 5 12 14 -1 10 3 16 9 15 6 -1 12 4 13 11 1 6 2 17 3 22 0 6 6 10 12
10 15 0 39 26 32 34 -4 3 -1 6 5 6 7 0 11 6 10 13 -2 6 3 11 10 9 8 -1 11 2 8
7 -4 5 1 17 10 25 11 12 12 16 2 16 -7 1 -3 6 10 13 12 7 19 16 16 20 -4 4 -2
7 4 7 10 0 28 37 24 51 -1 4 9 5 21 2 15 -3 18 -2 9 5 -10 7 -10 11 2 22 9 7
13 17 9 23 -4 6 0 8 9 4 21 -8 30 3 17 20 -9 10 -8 13 0 13 7 0 9 5 6 10 -5 8
14 14 36 12 4 -1 6 6 5 16 0 9 5 16 12 14 9 -2 11 2 6 10 -5 7 -9 19 -10 26
-2 11 0 11 14 0 9 -7 13 -8 9 -2 -4 7 0 15 9 18 8 3 14 14 12 23 -2 11 2 17
10 15 8 -1 11 2 7 7 -3 6 4 15 15 21 16 9 19 15 10 25 -8 10 -8 15 1 21 8 5
10 3 4 -7 -5 -8 3 -3 17 10 14 14 24 30 21 37 -2 6 3 14 11 17 9 4 16 14 16
22 0 9 4 14 9 10 6 -3 8 4 6 15 -2 11 0 18 4 15 5 -3 11 2 15 10 3 8 11 13 18
11 7 -1 9 -1 5 2 -5 2 0 13 10 25 13 14 14 18 3 13 -8 -4 -6 1 5 11 12 10 27
27 35 37 13 18 13 19 0 12 -8 -4 -5 2 8 13 13 11 21 25 17 31 -4 6 -3 10 2 9
20 -3 27 2 13 11 -13 8 -12 10 3 10 11 0 15 4 11 12 -5 8 -2 9 12 4 10 -4 15
-4 11 0 -4 4 -1 14 6 22 9 13 9 14 0 8 -9 -5 -11 -2 -7 8 3 9 11 14 17 13 7
-1 11 4 9 12 -2 8 3 11 11 8 10 -4 13 1 9 20 -3 16 -1 24 5 20 6 -4 19 3 29
16 13 14 14 18 4 12 -9 -6 -4 0 10 12 17 16 21 23 10 24 -9 0 -6 4 7 9 12 5
27 25 34 44 7 20 19 36 25 36 18 0 29 21 15 29 -7 5 -2 12 14 19 14 7 23 17
20 22 -3 6 -2 10 4 10 6 0 8 8 4 18 -3 9 -3 14 2 10 11 -11 67 63 60 80 -5 12
-3 13 10 2 13 -11 14 -10 9 5 -6 14 -4 16 6 10 10 -6 12 -4 7 8 -3 9 1 21 11
29 13 11 14 11 7 -1 -5 -9 -4 -12 3 -7 6 4 8 14 5 23 -5 12 -3 14 7 8 10 -6
12 -3 8 13 -4 15 0 23 13 27 10 4 19 11 19 16 0 6 4 8 9 5 5 -3 9 0 8 7 -1 32
4 48 13 42 6 -3 10 -1 10 5 0 6 5 8 13 4 8 -5 8 -2 -2 9 -11 13 -11 17 -1 17
8 0 10 3 7 7 -4 3 3 11 16 18 12 6 21 19 21 28 -1 9 3 15 10 14 6 -1 10 6 8
17 -2 10 1 15 7 12 11 -7 34 28 24 38 -3 3 -1 6 6 6 7 0 9 5 6 10 -4 6 -1 9 5
8 6 -2 19 8 28 22 12 17 13 22 3 16 -10 -6 -12 -5 -7 2 4 7 15 12 24 13 11 0
12 3 5 6 -7 2 -13 9 -13 14 0 4 7 6 15 2 9 -3 15 -2 14 3 -4 22 2 34 19 34 14
0 15 2 2 10 -13 8 -13 10 2 10 12 0 16 6 13 21 -4 18 -2 19 12 7 10 -7 14 -8
10 -1 -4 6 -4 18 -1 27 5 14 9 14 23 4 9 -7 13 -8 9 -4 -4 5 -2 16 5 24 9 13
9 14 0 8 -9 -5 -11 -2 -7 8 3 9 10 14 14 11 4 -3 11 7 14 20 4 16 11 23 18 19
8 -5 9 -1 5 10 -6 14 -3 17 9 12 14 -5 15 -4 5 8 -9 11 -9 16 0 22 8 5 9 3 4
-7 -8 -12 -6 -12 8 0 9 7 15 17 12 21 -3 5 -1 11 5 15 6 4 7 12 4 18 -4 7 -3
9 1 4 15 -13 43 22 37 46 -3 12 -2 19 3 15 11 -10 33 15 27 32 -3 8 -1 12 3 8
5 -5 13 2 20 15 6 12 17 21 23 20 7 -2 9 4 5 15 -6 15 -5 15 10 4 14 -12 15
-11 7 16 -7 25 -6 30 6 25 8 -3 14 -1 12 4 -2 6 8 20 22 32 21 18 22 20 5 16
-19 -5 -19 -5 0 5 12 6 27 20 34 32 7 11 8 17 2 14 -7 -4 -8 -1 -5 8 3 9 12
12 22 9 9 -4 14 -3 10 2 -4 4 -2 17 4 29 7 11 11 25 10 29 -1 5 2 6 8 2 5 -3
10 -1 10 5 0 6 5 8 13 4 7 -5 6 0 -3 11 -9 11 -10 16 -2 11 8 -5 12 -1 12 13
0 11 4 23 10 26 6 3 7 -1 4 -12 -5 -17 -5 -17 6 0 6 9 8 22 5 27 -3 6 1 7 9 4
14 -6 21 5 17 29 0 4 4 7 10 7 5 0 7 5 4 10 -6 10 9 15 30 10 5 -1 7 2 3 6 -4
4 -2 14 5 22 10 13 9 14 -3 7 -13 -8 -13 -7 -1 9 8 9 20 15 28 12 11 -5 11 -1
2 15 -8 15 -8 19 0 15 10 -7 16 6 12 27 -1 5 2 6 7 3 5 -3 16 4 25 15 10 11
12 19 6 19 -7 0 0 9 14 20 15 12 24 27 21 35 -4 8 1 18 10 21 9 3 16 13 16 21
0 8 5 11 10 8 6 -3 10 -1 10 5 0 6 5 8 12 4 6 -4 8 -3 4 4 -9 14 14 62 30 62
7 0 16 5 20 12 4 7 3 8 -4 4 -24 -15 -11 11 19 37 27 24 30 29 18 45 -7 9 -10
14 -5 10 10 -8 51 11 42 20 -8 7 22 54 42 66 12 7 12 10 1 17 -11 7 -11 9 2 9
14 0 55 38 61 58 2 4 7 6 11 4 5 -1 6 2 3 7 -9 13 4 42 16 35 5 -3 9 2 8 12
-4 32 -1 37 15 24 13 -11 14 -10 9 4 -3 9 -1 16 4 16 6 0 9 9 7 21 -3 16 -1
18 9 10 10 -9 13 -6 11 13 -2 18 1 23 11 19 8 -3 14 -1 12 5 -2 6 6 18 17 26
l20 16 -20 -6 c-12 -3 -9 1 8 11 24 14 32 26 28 48 0 4 4 7 10 7 5 0 7 5 3 12
-4 6 -3 9 2 5 5 -3 18 2 29 10 19 15 19 15 1 9 -17 -6 -17 -5 -5 11 8 10 25
28 38 40 13 13 18 23 12 23 -7 0 -9 5 -6 10 4 6 11 8 16 4 5 -3 8 0 7 8 -2 7
3 12 11 10 12 -3 12 -1 0 14 -9 12 -10 15 -1 10 8 -5 15 2 22 18 5 14 14 26
20 26 6 0 9 3 7 8 -10 16 13 54 29 48 8 -3 12 -2 9 4 -3 6 -2 10 3 10 11 0 38
60 34 74 -2 5 5 3 15 -4 10 -8 15 -10 11 -6 -4 5 -3 15 3 23 6 7 8 13 4 13 -5
0 5 12 21 26 16 15 23 23 17 20 -26 -14 -12 10 16 29 17 11 28 21 26 24 -3 2
-10 0 -18 -5 -7 -5 -5 -2 4 7 14 13 15 19 6 29 -10 10 -9 12 5 7 19 -7 48 22
41 41 -3 6 0 12 7 12 6 0 9 4 5 9 -3 6 4 8 16 6 17 -3 19 -1 9 10 -9 10 -7 14
7 17 10 2 18 12 18 23 0 11 5 19 12 18 8 -2 10 4 6 14 -4 11 -3 14 5 9 7 -4
12 -1 12 10 0 9 12 28 28 42 15 13 21 21 15 18 -24 -13 -13 13 12 30 14 9 23
20 20 24 -3 5 -1 11 5 15 6 4 8 10 5 15 -3 5 0 12 6 16 8 5 9 3 4 -6 -6 -9 -4
-11 4 -6 7 5 10 14 7 22 -3 9 0 11 11 7 9 -4 14 -2 11 3 -7 11 17 59 29 59 4
0 7 6 7 13 -1 9 2 10 10 3 9 -8 13 -6 13 4 0 8 -4 15 -9 15 -5 0 -6 5 -3 11 4
6 9 8 12 5 9 -9 31 19 25 33 -3 8 -1 12 5 8 6 -4 14 4 17 18 4 15 11 23 17 19
6 -3 10 2 9 12 -4 32 -1 37 15 24 13 -11 14 -10 9 4 -3 9 -1 16 6 16 6 0 9 4
6 9 -3 5 1 11 9 15 8 3 15 15 15 26 0 12 4 19 9 15 5 -3 12 -1 15 4 4 5 2 12
-4 16 -6 4 -7 11 -4 17 4 6 10 5 15 -3 7 -11 9 -10 9 4 0 9 5 17 11 17 5 0 7
5 3 12 -5 7 -2 9 9 5 12 -4 14 -2 10 10 -4 11 -2 14 5 9 7 -4 10 1 7 14 -2 11
0 18 6 15 5 -4 9 -1 9 5 0 6 5 8 13 4 7 -5 6 0 -3 11 -9 11 -10 16 -2 11 8 -5
12 0 12 16 0 18 2 20 10 8 8 -13 10 -12 10 3 0 9 4 17 9 17 4 0 8 9 7 20 0 11
2 18 5 17 11 -3 49 35 43 44 -7 11 32 49 42 41 5 -4 2 1 -5 11 -7 9 -11 18 -7
18 3 1 10 2 15 3 16 2 25 16 11 16 -16 0 -3 15 13 15 7 0 11 8 11 18 -2 13 1
15 10 8 9 -8 13 -6 13 4 0 8 -5 15 -11 15 -6 0 -4 4 4 9 8 6 17 8 20 6 3 -2 7
5 7 16 2 24 22 51 33 44 4 -3 13 2 20 10 9 10 9 15 1 15 -6 0 -11 -5 -11 -12
0 -6 -3 -9 -6 -5 -4 3 3 18 15 33 11 14 18 31 14 38 -4 6 2 4 12 -4 10 -8 16
-10 12 -3 -4 6 -3 15 3 18 8 5 7 12 -2 23 -11 13 -11 15 4 9 10 -3 22 1 30 11
11 13 11 14 -2 7 -8 -5 -5 4 8 19 12 16 19 33 15 40 -4 6 0 5 9 -2 13 -10 18
-10 24 -1 5 8 3 10 -7 5 -8 -5 -8 -2 2 6 9 7 15 23 14 35 -1 14 3 19 12 16 7
-3 13 2 13 10 0 8 8 18 17 21 15 6 15 8 3 16 -13 8 -12 10 2 10 18 0 42 33 31
44 -3 3 -1 6 6 6 7 0 9 5 5 12 -4 7 -3 8 4 4 8 -4 16 3 22 18 10 29 40 36 40
10 0 -10 5 -14 16 -10 8 3 12 2 9 -4 -3 -6 -1 -10 5 -10 8 0 7 -6 -1 -22 -9
-18 -9 -20 4 -15 17 6 41 -16 29 -27 -4 -4 1 -12 11 -17 9 -6 29 -32 42 -60
14 -27 30 -49 36 -49 8 0 7 -5 -1 -15 -10 -13 -9 -15 9 -15 12 0 21 -6 21 -16
0 -8 5 -12 10 -9 9 6 14 -8 11 -27 0 -5 3 -8 9 -8 5 0 10 -7 10 -15 0 -14 12
-20 33 -16 4 1 3 -7 -2 -18 -8 -15 -5 -23 19 -45 17 -14 30 -33 30 -42 0 -8 5
-12 10 -9 6 3 10 -1 10 -10 0 -9 5 -13 11 -9 8 4 9 0 4 -15 -4 -15 -2 -21 8
-21 16 0 30 -27 22 -41 -3 -4 6 -11 20 -15 16 -4 25 -13 25 -25 0 -11 7 -19
18 -19 14 0 15 -2 2 -10 -11 -7 -11 -10 -2 -10 7 0 11 -4 8 -9 -3 -5 4 -11 17
-15 18 -5 20 -8 7 -16 -12 -8 -12 -10 5 -10 17 0 17 -2 5 -10 -13 -8 -13 -10
2 -10 12 0 15 -5 11 -17 -4 -11 -3 -14 5 -9 20 12 35 -4 20 -22 -7 -9 -8 -13
-2 -9 6 3 18 -9 27 -29 10 -20 22 -32 28 -29 6 4 9 0 7 -11 -2 -11 2 -18 10
-16 6 1 11 -1 11 -5 -4 -24 3 -43 15 -43 17 0 48 -39 40 -52 -3 -4 0 -8 6 -8
6 0 8 -4 5 -10 -3 -5 1 -10 10 -10 9 0 13 -4 10 -10 -3 -5 2 -10 11 -10 13 0
15 -3 7 -11 -8 -8 -6 -16 8 -30 10 -10 24 -19 30 -19 8 0 8 -4 0 -14 -9 -10
-7 -17 6 -27 15 -12 16 -12 8 1 -5 10 -5 12 3 5 6 -5 12 -16 14 -24 2 -8 15
-26 31 -41 15 -15 27 -32 27 -39 0 -6 6 -11 13 -11 9 0 9 -2 -1 -9 -11 -6 -10
-10 5 -16 10 -5 22 -7 26 -6 5 1 5 -4 1 -10 -3 -6 0 -15 7 -20 10 -6 11 -9 2
-9 -7 0 -13 -5 -13 -10 0 -6 3 -9 8 -9 20 3 32 -2 32 -15 0 -8 6 -17 13 -19 9
-4 9 -6 -1 -6 -7 -1 -11 -5 -7 -11 3 -5 12 -7 20 -3 11 4 13 1 8 -13 -5 -13
-3 -15 7 -9 8 5 11 4 6 -3 -3 -6 5 -22 20 -37 15 -15 23 -32 20 -41 -3 -9 -1
-12 4 -9 6 3 10 -1 10 -9 0 -17 34 -39 43 -29 4 3 5 -4 2 -16 -2 -11 0 -21 6
-21 5 0 9 -9 9 -20 0 -11 6 -19 12 -18 7 2 14 -7 16 -19 2 -13 10 -23 18 -23
8 0 12 -4 9 -10 -3 -5 -2 -10 4 -10 6 0 13 -11 17 -25 3 -14 10 -22 15 -19 5
3 9 0 9 -6 0 -6 5 -8 13 -4 9 6 8 3 -1 -9 -12 -14 -10 -19 13 -38 14 -13 23
-29 21 -36 -3 -7 2 -13 10 -13 9 0 12 -5 8 -12 -5 -7 -2 -9 9 -5 11 4 14 2 10
-9 -5 -13 8 -19 31 -15 5 1 4 -4 -2 -12 -10 -11 -9 -17 1 -26 8 -6 18 -7 23
-3 4 4 2 -1 -5 -10 -12 -16 -11 -18 10 -18 17 0 20 -3 11 -9 -11 -7 -11 -9 2
-14 9 -4 16 -14 16 -23 0 -14 2 -15 17 -3 15 13 15 12 5 -7 -9 -17 -9 -24 2
-33 7 -6 16 -8 20 -4 4 4 4 0 0 -10 -3 -10 -1 -17 6 -17 6 0 8 -4 5 -10 -3 -5
-1 -10 5 -10 6 0 8 -4 5 -10 -3 -5 1 -10 9 -10 14 0 20 -12 17 -32 0 -5 3 -8
8 -8 5 0 12 -9 16 -20 3 -11 11 -19 18 -17 6 1 13 -6 15 -16 4 -21 37 -57 46
-51 3 2 4 1 1 -3 -3 -3 1 -13 8 -21 6 -9 7 -13 1 -9 -6 3 -11 0 -11 -8 0 -8 4
-12 9 -9 4 3 8 0 8 -6 0 -6 5 -8 10 -5 9 6 14 -8 11 -27 0 -5 3 -8 9 -8 5 0
10 -7 10 -16 0 -8 5 -12 10 -9 6 3 10 1 10 -5 0 -6 6 -8 13 -4 9 5 9 4 0 -6
-14 -15 -6 -40 13 -40 8 0 14 -8 14 -18 0 -9 9 -23 20 -30 11 -7 20 -19 20
-28 0 -8 5 -12 10 -9 9 5 15 -10 8 -18 -3 -3 12 -22 45 -58 9 -10 17 -21 17
-24 0 -3 0 -10 0 -16 0 -6 7 -8 16 -5 8 3 12 2 9 -3 -3 -5 -1 -13 5 -16 8 -5
8 -11 0 -20 -9 -11 -8 -13 9 -10 14 2 18 -1 14 -11 -3 -8 1 -14 8 -14 7 0 9
-3 6 -6 -4 -4 3 -15 15 -26 12 -10 22 -28 23 -41 1 -15 8 -21 19 -19 9 2 16
-1 15 -5 -3 -20 2 -34 11 -28 6 3 10 -1 10 -10 0 -9 5 -13 10 -10 14 9 12 -8
-2 -24 -10 -11 -10 -13 0 -7 6 4 12 2 12 -4 0 -6 5 -8 10 -5 9 6 14 -8 11 -27
0 -5 3 -8 9 -8 5 0 10 -7 10 -16 0 -8 4 -13 9 -10 11 7 23 -22 14 -36 -3 -6
-2 -9 3 -6 5 3 15 0 22 -8 7 -8 9 -14 5 -14 -4 0 0 -5 9 -11 11 -6 15 -16 11
-26 -5 -12 -3 -14 7 -8 10 6 12 4 6 -11 -4 -10 -4 -15 0 -11 4 4 13 2 21 -4
10 -9 10 -15 2 -25 -9 -11 -7 -14 9 -14 12 0 24 -11 32 -30 7 -16 19 -30 27
-30 10 0 14 -7 10 -19 -3 -15 -1 -18 11 -14 10 4 13 2 8 -5 -4 -7 -3 -12 3
-12 6 0 8 -7 5 -15 -4 -9 0 -15 10 -15 14 0 21 -18 17 -42 0 -5 3 -8 7 -8 5 0
19 -9 32 -20 13 -11 18 -20 12 -20 -7 0 -12 -5 -12 -12 0 -6 3 -9 6 -5 8 8 33
-16 27 -25 -2 -5 3 -8 11 -8 14 0 20 -12 17 -32 0 -5 4 -8 10 -8 5 0 7 -4 4
-10 -3 -5 1 -10 9 -10 9 0 17 -4 17 -10 1 -5 2 -16 3 -22 1 -7 7 -12 14 -11 7
2 9 -4 5 -14 -4 -11 -3 -14 5 -9 11 6 17 -5 13 -26 0 -5 4 -8 10 -8 5 0 7 -4
4 -10 -3 -5 1 -10 9 -10 9 0 16 -9 16 -20 0 -11 5 -20 11 -20 5 0 7 -6 3 -12
-5 -8 -2 -8 10 1 15 12 17 12 14 0 -2 -8 -7 -17 -13 -21 -5 -4 1 -8 15 -8 20
0 22 -2 10 -10 -10 -6 -11 -10 -2 -10 6 0 12 -7 12 -15 0 -8 6 -14 13 -13 7 2
11 -5 9 -16 -2 -10 1 -16 5 -13 5 3 15 2 23 -4 13 -7 13 -9 1 -9 -11 0 -10 -4
4 -13 10 -8 15 -19 11 -25 -5 -8 -2 -10 9 -6 11 5 14 2 9 -10 -4 -10 0 -18 11
-22 16 -6 40 -50 37 -66 -1 -5 5 -8 14 -8 10 0 14 -6 11 -14 -6 -16 47 -68 59
-58 5 4 3 0 -4 -9 -10 -14 -10 -18 4 -23 9 -4 14 -12 10 -22 -4 -9 -2 -13 5
-8 11 6 58 -42 59 -60 0 -6 -7 -1 -15 10 -13 16 -14 16 -9 1 4 -10 15 -22 26
-28 13 -7 17 -16 13 -27 -3 -9 -3 -13 1 -10 8 8 34 -14 27 -24 -2 -5 4 -8 14
-8 15 0 16 -2 3 -10 -11 -7 -11 -10 -2 -10 7 0 10 -4 7 -10 -3 -5 1 -10 9 -10
9 0 16 -7 16 -15 0 -8 5 -15 11 -15 8 0 7 -6 -2 -17 -7 -10 -10 -15 -5 -11 9
7 66 -40 66 -56 0 -5 -7 -1 -16 10 -15 18 -15 17 -1 -6 8 -14 19 -25 25 -25 6
0 17 -6 24 -14 11 -12 10 -13 -2 -6 -12 7 -13 6 -3 -7 7 -8 11 -18 8 -21 -3
-4 -2 -5 1 -2 9 6 45 -35 39 -44 -2 -4 5 -13 15 -21 10 -8 17 -17 14 -22 -3
-4 0 -8 6 -8 6 0 9 -4 6 -8 -3 -5 4 -15 15 -22 10 -8 19 -20 19 -28 0 -7 5
-10 11 -6 8 5 8 1 0 -14 -10 -18 -9 -20 10 -17 13 3 19 0 16 -8 -2 -7 3 -18
12 -25 13 -11 13 -12 1 -7 -8 4 -5 -2 8 -13 12 -11 22 -25 22 -32 0 -6 4 -9 9
-5 15 9 27 -15 30 -57 1 -19 3 -20 11 -8 8 13 10 12 10 -2 0 -21 30 -59 42
-52 4 3 5 -2 2 -10 -3 -9 -1 -16 5 -16 6 0 8 -7 4 -17 -5 -12 -3 -14 7 -8 10
6 12 4 7 -8 -3 -9 -3 -16 1 -16 18 3 32 -2 32 -12 0 -5 -4 -7 -10 -4 -6 3 -7
-1 -4 -9 3 -9 12 -16 20 -16 13 0 18 -12 15 -32 0 -5 4 -8 10 -8 5 0 7 -4 4
-10 -3 -5 -1 -10 5 -10 14 0 40 -25 40 -39 0 -6 5 -11 11 -11 5 0 8 -4 4 -9
-3 -6 2 -14 11 -19 10 -6 15 -16 11 -26 -4 -10 -1 -16 7 -16 8 0 17 -7 20 -16
3 -8 10 -13 15 -10 4 3 7 -6 6 -19 -2 -14 2 -23 8 -22 7 1 11 -6 10 -16 0 -11
4 -16 12 -13 7 2 16 -1 19 -9 3 -9 -1 -12 -12 -9 -9 2 -5 -2 10 -9 22 -10 25
-16 16 -25 -9 -9 -8 -12 6 -12 9 0 14 -4 11 -10 -3 -5 1 -10 9 -10 10 0 13 -6
9 -17 -5 -12 -2 -15 9 -10 10 3 19 0 22 -9 4 -10 1 -13 -7 -9 -6 4 -4 0 6 -8
9 -8 17 -23 17 -33 0 -16 2 -17 10 -4 8 13 10 13 10 -1 0 -9 7 -22 15 -29 12
-10 13 -16 3 -28 -10 -13 -10 -14 0 -8 7 4 12 2 12 -4 0 -6 5 -8 10 -5 5 3 10
-3 10 -14 0 -12 5 -21 10 -21 6 0 10 -7 10 -16 0 -8 4 -13 9 -10 11 7 23 -22
14 -36 -3 -7 -1 -8 5 -4 11 7 17 -6 13 -28 -1 -5 6 -3 15 5 16 12 17 12 11 -3
-4 -12 -2 -18 7 -18 10 0 12 -7 8 -22 -4 -18 -2 -20 14 -14 10 4 15 4 12 0 -4
-3 0 -13 8 -21 8 -8 12 -19 9 -24 -4 -5 0 -9 8 -9 16 0 39 -54 29 -66 -4 -4
-2 -4 4 -1 7 4 17 -6 24 -23 7 -17 16 -30 21 -30 5 0 9 -7 9 -16 0 -10 6 -14
14 -11 9 4 13 0 12 -11 -2 -9 3 -23 11 -30 7 -8 11 -18 8 -23 -4 -5 0 -6 8 -3
18 6 41 -21 33 -41 -4 -11 1 -15 17 -15 16 0 18 -3 9 -9 -11 -7 -10 -9 3 -15
9 -3 13 -10 10 -16 -3 -5 -1 -10 5 -10 6 0 8 -4 5 -10 -3 -5 1 -10 9 -10 9 0
16 -4 16 -10 0 -5 0 -12 0 -15 0 -2 12 -16 26 -30 14 -14 23 -29 20 -34 -3 -5
1 -12 10 -15 9 -3 14 -13 11 -20 -4 -10 0 -13 14 -11 16 3 19 0 15 -12 -6 -14
-4 -14 11 -2 9 8 14 9 10 2 -4 -6 1 -18 13 -26 11 -7 17 -18 12 -23 -4 -4 2
-2 13 6 11 8 17 10 13 6 -10 -11 31 -48 44 -40 6 4 14 0 19 -7 8 -12 11 -12
20 1 8 12 9 10 4 -9 -6 -18 -4 -22 6 -15 20 12 39 14 39 3 0 -6 4 -8 9 -5 5 3
13 0 19 -7 12 -14 70 -16 91 -3 8 5 17 3 22 -5 5 -8 9 -9 9 -4 0 6 10 16 21
24 18 11 23 11 30 0 6 -10 11 -7 18 11 5 14 10 19 10 11 1 -11 4 -11 18 0 13
11 15 11 9 1 -6 -10 0 -9 23 2 17 9 38 29 46 44 15 26 16 27 10 2 -6 -24 -6
-24 9 -5 8 11 20 25 25 31 5 7 7 16 3 20 -4 5 2 2 12 -6 13 -10 17 -10 12 -2
-4 7 -2 12 4 12 6 0 8 4 5 10 -3 6 -1 10 5 10 6 0 8 5 5 10 -3 6 2 10 12 10
11 0 14 3 7 8 -9 5 -8 11 2 20 8 7 14 9 14 5 1 -16 31 61 32 83 1 12 7 22 13
21 5 -1 9 14 8 36 -2 28 1 36 10 31 8 -5 7 -2 -2 9 -7 9 -10 17 -6 17 4 0 1 8
-6 17 -10 11 -10 14 -1 9 8 -5 12 0 12 13 0 12 -6 21 -12 21 -9 0 -9 3 -2 8
14 9 10 65 -5 70 -6 2 -9 8 -5 13 3 5 -2 12 -10 15 -13 5 -13 10 -4 27 6 12 7
19 3 15 -7 -7 -44 26 -46 41 0 3 -3 15 -5 26 -3 11 -6 25 -6 32 -1 9 -7 9 -21
1 -17 -9 -19 -8 -14 7 4 9 0 23 -8 32 -8 8 -13 19 -10 24 4 5 -1 6 -9 3 -11
-4 -16 0 -16 10 0 9 -4 16 -10 16 -5 0 -10 5 -10 11 0 5 5 7 12 3 7 -4 8 -3 4
5 -4 6 -12 9 -17 6 -8 -6 -13 8 -10 28 0 4 -5 7 -13 7 -8 0 -18 5 -22 12 -4 7
-3 8 5 4 8 -6 8 -1 -1 18 -6 14 -18 26 -26 26 -9 0 -12 6 -8 16 3 8 2 12 -4 9
-6 -3 -10 3 -10 14 0 11 -9 22 -21 26 -17 6 -19 9 -8 16 11 7 9 10 -8 15 -18
5 -22 12 -18 32 3 19 1 22 -7 14 -7 -7 -17 -12 -22 -12 -6 0 -5 4 3 9 12 8 12
11 -1 25 -9 8 -18 12 -22 9 -3 -4 -6 2 -6 11 0 13 -5 16 -17 11 -14 -5 -15 -3
-6 6 13 13 6 42 -8 33 -9 -5 -11 0 -13 29 -1 17 -20 36 -26 27 -3 -5 -10 2
-17 16 -6 13 -7 22 -2 18 5 -3 9 0 9 5 0 6 -7 11 -16 11 -8 0 -13 4 -10 8 3 5
-4 14 -14 22 -10 8 -17 17 -14 22 3 4 -2 11 -10 14 -9 3 -16 12 -16 20 0 8 -8
14 -17 14 -13 0 -14 3 -6 8 16 10 -11 52 -32 52 -9 0 -12 6 -8 17 5 12 3 14
-7 8 -10 -6 -12 -4 -7 9 4 9 3 14 -2 11 -5 -3 -12 4 -16 15 -4 11 -10 18 -15
15 -5 -3 -12 0 -16 6 -4 8 -3 9 4 5 7 -4 12 -1 12 9 0 8 -11 20 -25 25 -14 5
-25 12 -25 15 0 4 5 3 10 0 6 -3 10 -1 10 4 0 6 -5 11 -11 11 -6 0 -9 7 -5 15
3 8 0 14 -7 12 -7 -1 -11 3 -10 10 2 7 -4 10 -13 6 -8 -3 -14 -2 -13 3 4 26
-4 42 -27 54 -23 13 -24 15 -7 21 17 7 17 8 -1 8 -11 1 -17 4 -13 7 8 8 -16
33 -25 27 -5 -2 -8 3 -8 11 0 9 -4 16 -10 16 -5 0 -10 9 -10 20 0 11 -7 20
-16 20 -8 0 -12 5 -9 10 3 5 1 10 -6 10 -7 0 -9 3 -6 6 9 10 -12 46 -24 39 -8
-6 -13 11 -12 42 1 7 -3 11 -7 8 -13 -8 -32 23 -24 37 6 9 3 9 -9 -1 -15 -12
-17 -12 -11 2 3 9 -3 25 -15 38 -12 13 -21 19 -21 13 0 -5 -4 -2 -10 6 -5 9
-5 19 2 27 8 11 7 12 -7 6 -15 -5 -17 -3 -12 11 4 9 3 15 -2 12 -5 -3 -15 2
-22 11 -12 14 -12 16 1 9 8 -4 7 -1 -3 7 -11 9 -15 22 -11 33 4 14 3 15 -4 5
-12 -17 -26 0 -31 40 0 5 -6 7 -11 4 -5 -3 -10 1 -10 9 0 9 -5 16 -11 16 -5 0
-8 4 -5 9 3 5 -1 11 -9 15 -8 3 -15 13 -15 21 0 9 -4 13 -10 10 -5 -3 -7 0 -4
8 5 15 -31 57 -48 57 -5 0 -6 5 -3 10 3 6 1 10 -4 10 -6 0 -10 6 -9 13 2 6 -2
11 -9 10 -7 -2 -10 6 -8 17 3 13 0 18 -7 14 -8 -5 -9 -1 -5 10 4 10 1 19 -8
22 -8 4 -13 10 -10 14 3 5 -5 6 -17 2 -20 -5 -21 -4 -9 11 12 15 10 18 -10 26
-14 6 -17 10 -9 11 11 0 10 5 -6 19 -12 9 -24 26 -26 37 -2 10 -11 18 -20 18
-16 -1 -18 12 -5 33 6 9 3 11 -9 6 -12 -4 -15 -3 -10 5 7 11 -6 17 -28 13 -5
-1 -3 6 5 15 8 10 9 15 3 11 -7 -4 -17 0 -24 8 -10 12 -10 15 1 15 8 1 4 6 -9
13 -12 7 -19 17 -15 22 4 4 1 6 -8 3 -9 -4 -16 -1 -16 8 0 7 5 10 11 7 6 -3 1
5 -12 19 -12 13 -19 28 -15 32 4 4 1 4 -8 1 -10 -4 -15 1 -16 16 -1 11 -12 29
-23 39 -13 11 -19 24 -14 31 5 8 3 9 -6 4 -10 -6 -12 -4 -7 9 5 13 3 17 -6 13
-7 -3 -19 5 -27 16 -12 21 -12 21 6 7 18 -14 18 -14 5 5 -27 36 -59 64 -66 57
-4 -4 -5 2 -3 13 2 13 -2 19 -10 17 -8 -1 -11 2 -8 7 4 5 -1 16 -10 25 -8 9
-12 20 -9 26 3 5 -1 10 -9 10 -9 0 -16 7 -16 16 0 9 -5 12 -12 8 -8 -5 -7 0 2
11 9 11 10 16 3 11 -8 -4 -13 -1 -13 9 0 9 -4 14 -9 11 -5 -3 -11 4 -14 15 -4
13 -10 18 -17 14 -9 -5 -8 0 1 16 12 23 11 23 -6 9 -10 -8 -16 -10 -12 -4 8
14 -31 60 -46 56 -6 -2 -5 3 2 12 10 12 9 17 -7 25 -11 6 -23 22 -26 36 -4 14
-13 25 -20 25 -8 0 -16 7 -20 15 -3 8 0 15 6 15 7 0 -2 12 -19 26 -20 16 -30
33 -28 44 3 13 -1 17 -11 13 -8 -3 -14 1 -14 11 0 9 -4 16 -10 16 -5 0 -10 5
-10 11 0 5 5 7 12 3 7 -4 8 -3 4 5 -4 6 -12 9 -17 6 -5 -4 -9 -1 -9 5 0 6 -11
22 -25 36 -13 13 -25 27 -25 29 0 3 0 10 0 16 0 5 -4 7 -10 4 -5 -3 -10 1 -10
9 0 9 -5 16 -11 16 -5 0 -7 5 -4 10 3 6 -1 13 -9 16 -9 3 -14 10 -11 14 3 5
-1 12 -9 17 -7 4 -16 17 -18 28 -2 11 -11 19 -21 19 -14 -1 -15 2 -5 20 10 19
9 19 -5 8 -13 -11 -15 -10 -10 6 3 12 -3 25 -15 33 -19 14 -22 19 -22 39 0 6
-7 10 -16 10 -8 0 -12 5 -9 10 3 6 -1 10 -10 10 -9 0 -13 5 -10 10 3 6 1 10
-5 10 -6 0 -8 5 -5 10 3 6 1 10 -5 10 -6 0 -9 3 -7 8 7 10 -19 32 -29 24 -4
-4 -4 -2 -1 5 4 6 0 18 -8 26 -8 9 -15 20 -15 26 0 6 -5 11 -11 11 -5 0 -7 5
-4 10 3 6 1 10 -5 10 -6 0 -9 4 -5 9 3 5 -4 13 -16 16 -17 6 -19 9 -8 16 10 6
11 9 2 9 -7 0 -13 6 -13 14 0 8 -5 18 -12 22 -7 5 -8 3 -3 -7 8 -12 6 -12 -8
0 -14 11 -15 16 -5 29 8 10 8 13 2 9 -7 -4 -14 2 -17 14 -3 12 -10 18 -15 15
-5 -3 -16 2 -23 11 -12 14 -12 16 1 9 9 -4 8 -1 -2 7 -10 8 -18 20 -18 26 0 7
-5 9 -12 5 -8 -5 -7 0 2 11 8 10 11 16 5 13 -5 -3 -16 0 -23 8 -7 8 -9 14 -5
14 4 1 -3 9 -16 20 -13 11 -24 31 -25 44 -1 18 -4 22 -14 14 -9 -8 -11 -7 -6
6 4 10 0 18 -10 22 -9 3 -16 15 -16 25 0 10 -6 19 -14 19 -19 0 -27 25 -13 40
9 10 9 11 0 6 -7 -4 -13 -2 -13 3 0 6 -7 11 -16 11 -8 0 -12 5 -9 10 6 9 -8
15 -29 11 -5 -1 -4 4 2 12 14 17 6 28 -16 20 -13 -4 -12 -1 3 11 11 10 14 15
7 11 -6 -3 -15 1 -18 9 -3 9 -10 13 -15 10 -5 -3 -6 2 -3 10 4 10 1 16 -7 16
-7 0 -9 3 -6 7 4 3 -5 15 -20 26 -16 10 -20 17 -11 14 12 -4 15 -2 11 8 -3 8
-8 13 -12 11 -3 -2 -15 8 -25 22 -11 14 -14 22 -7 18 10 -6 10 -4 0 12 -7 12
-17 18 -21 16 -4 -3 -8 -1 -8 4 0 4 -8 17 -18 28 -10 10 -18 22 -18 25 1 9
-31 39 -36 34 -3 -3 -5 2 -5 10 0 8 5 12 10 8 5 -3 4 4 -2 15 -6 11 -20 24
-31 27 -16 5 -18 10 -10 26 6 11 7 19 3 18 -21 -4 -33 2 -33 17 0 9 -5 12 -12
8 -6 -4 -8 -3 -5 4 9 14 -3 43 -14 36 -5 -3 -9 2 -9 10 0 9 -5 16 -11 16 -6 0
-8 7 -5 16 4 11 2 15 -8 11 -10 -4 -12 1 -9 16 4 18 3 19 -6 7 -7 -10 -11 -11
-11 -3 0 7 -10 22 -22 34 -13 12 -17 18 -10 14 11 -6 12 -3 2 14 -6 12 -18 25
-26 28 -8 3 -13 12 -10 20 4 9 2 11 -6 7 -8 -5 -9 -2 -5 10 5 13 3 17 -7 13
-8 -3 -17 1 -20 9 -3 8 -1 14 5 14 6 0 4 7 -5 15 -8 8 -20 15 -26 15 -7 0 -10
6 -7 13 6 15 -18 39 -29 29 -5 -4 -2 2 6 12 13 18 13 19 -2 14 -10 -4 -19 -1
-22 8 -3 8 -1 14 5 14 6 0 4 7 -5 15 -8 8 -20 15 -26 15 -6 0 -8 5 -5 10 3 6
-1 10 -9 10 -16 0 -20 11 -16 40 1 8 -1 12 -5 8 -10 -10 -38 20 -30 32 3 5 1
10 -5 10 -7 0 -9 7 -6 16 3 8 2 13 -2 10 -11 -6 -42 30 -42 49 0 7 -9 21 -21
29 -12 8 -19 18 -16 23 3 5 -3 17 -13 26 -10 8 -21 13 -23 9 -2 -4 -2 -1 0 7
2 7 -12 28 -31 46 -19 18 -32 36 -28 40 4 3 -1 13 -12 20 -11 9 -15 19 -10 27
6 9 3 9 -10 -1 -15 -12 -17 -12 -14 0 2 8 8 17 13 21 6 5 5 8 -3 8 -8 0 -10 5
-6 13 5 7 2 7 -10 -2 -9 -8 -16 -10 -15 -5 3 19 -1 35 -9 30 -4 -2 -9 5 -9 16
-1 12 -10 28 -19 37 -12 11 -14 12 -9 2 5 -9 4 -12 -3 -7 -6 3 -9 15 -7 26 3
13 0 18 -7 14 -8 -5 -9 -1 -5 10 6 14 3 17 -9 12 -11 -4 -18 1 -21 14 -3 11
-10 20 -15 20 -6 0 -8 7 -4 15 3 8 1 15 -5 15 -6 0 -7 5 -3 12 5 7 3 8 -6 3
-17 -10 -32 16 -18 32 8 10 7 12 -4 8 -8 -3 -21 2 -29 12 -12 16 -12 17 1 8
13 -8 13 -7 0 5 -17 15 -20 22 -20 41 0 5 -4 7 -10 4 -5 -3 -10 1 -10 9 0 9
-5 16 -11 16 -6 0 -8 9 -4 20 5 15 3 18 -9 14 -12 -4 -16 0 -16 16 0 11 -4 18
-10 15 -5 -3 -10 3 -10 14 0 11 -5 23 -12 27 -7 5 -9 2 -4 -7 4 -8 1 -5 -8 5
-8 10 -12 24 -9 30 4 6 -1 5 -10 -3 -16 -13 -17 -12 -8 12 9 23 8 25 -10 22
-11 -2 -17 0 -14 5 3 4 -2 16 -11 24 -8 9 -13 16 -9 16 3 0 -6 12 -20 26 -21
21 -24 29 -13 35 10 7 9 9 -5 9 -10 0 -16 4 -12 9 3 5 -4 13 -16 16 -17 6 -19
9 -8 16 10 6 11 9 2 9 -7 0 -13 5 -13 11 0 6 -10 20 -22 31 -13 11 -17 16 -9
12 9 -5 12 -3 7 4 -4 7 -15 12 -24 13 -10 0 -12 3 -5 6 10 3 10 8 -1 19 -8 8
-20 14 -26 14 -6 0 -8 5 -5 10 3 6 1 10 -4 10 -6 0 -11 9 -11 20 0 11 -7 20
-16 20 -8 0 -12 5 -9 10 3 6 1 10 -6 10 -8 0 -8 4 1 15 11 13 10 14 -5 9 -13
-5 -16 -4 -11 4 4 7 1 12 -9 12 -9 0 -15 6 -13 12 3 7 -1 19 -9 26 -7 8 -10
19 -6 25 4 6 0 8 -10 4 -16 -6 -23 8 -18 36 0 4 -6 7 -14 7 -8 0 -19 10 -26
21 -8 16 -8 20 1 14 9 -6 9 -2 1 14 -7 11 -19 21 -27 21 -11 0 -14 6 -10 16 3
8 2 13 -3 10 -5 -3 -12 1 -15 10 -3 9 -11 12 -18 8 -8 -5 -8 -1 2 12 8 10 10
16 6 12 -13 -11 -39 29 -30 45 6 9 4 9 -8 -1 -14 -11 -16 -10 -11 7 4 15 1 21
-11 21 -11 0 -14 5 -10 12 4 6 -1 17 -11 25 -11 7 -15 13 -9 13 5 1 -2 7 -16
15 -14 8 -19 14 -12 15 7 0 2 11 -13 26 -14 14 -23 30 -20 35 4 5 1 9 -4 9 -6
0 -11 5 -11 11 0 13 -38 49 -51 49 -5 0 -5 7 -2 17 4 11 3 14 -5 9 -16 -10
-42 15 -42 42 0 4 -5 0 -10 -8 -8 -12 -10 -10 -11 10 0 14 -3 19 -6 13 -3 -10
-8 -9 -20 3 -9 8 -21 13 -29 10 -7 -3 -18 3 -26 12 -12 16 -11 16 7 2 19 -14
19 -14 6 2 -7 10 -18 15 -25 11 -21 -14 -35 -11 -42 9 -6 19 -6 19 -20 1 -14
-17 -14 -17 -8 1 6 16 4 17 -14 7 -17 -9 -22 -9 -22 1 0 6 -7 3 -16 -8 -8 -10
-12 -13 -8 -5 5 11 2 13 -14 9 -13 -4 -22 -1 -22 5 0 8 -3 8 -8 2 -10 -15 -55
-18 -46 -3 4 7 3 8 -5 4 -21 -14 -61 -17 -61 -5 0 8 -5 7 -16 -2 -13 -10 -17
-10 -25 2 -5 8 -9 9 -9 3 0 -6 -7 -11 -15 -11 -8 0 -15 5 -15 11 0 6 -5 4 -10
-4 -8 -13 -10 -13 -10 -1 0 11 -4 10 -16 -5 -8 -10 -13 -14 -10 -8 6 12 -29
26 -39 16 -10 -11 -35 -10 -35 0 0 6 -7 4 -17 -3 -13 -11 -17 -11 -21 -1 -3
10 -7 10 -19 1 -12 -10 -16 -10 -24 2 -6 10 -9 11 -9 1 0 -7 -4 -11 -9 -7 -5
3 -13 0 -17 -6 -5 -9 -11 -7 -21 6 -9 14 -13 15 -13 4 0 -12 -2 -12 -10 1 -5
8 -10 10 -10 5 0 -6 -9 -11 -20 -11 -11 0 -20 4 -20 8 0 4 -7 5 -15 2 -8 -4
-12 -11 -8 -18 4 -8 2 -8 -7 1 -7 6 -19 9 -26 6 -8 -3 -14 0 -14 7 0 10 -4 9
-16 -1 -13 -10 -17 -10 -25 2 -5 8 -9 9 -9 3 0 -6 -7 -11 -15 -11 -8 0 -15 5
-15 11 0 6 -5 4 -10 -4 -8 -13 -10 -13 -10 -1 0 11 -4 10 -16 -5 -8 -10 -13
-14 -10 -8 6 12 -29 26 -39 16 -10 -11 -35 -10 -35 0 0 6 -7 4 -17 -3 -13 -11
-17 -11 -21 -1 -3 10 -7 10 -19 1 -12 -10 -16 -10 -24 2 -6 10 -9 11 -9 1 0
-7 -4 -11 -9 -7 -5 3 -13 0 -17 -6 -5 -9 -11 -7 -21 6 -9 14 -13 15 -13 4 0
-12 -2 -12 -10 1 -5 8 -10 10 -10 5 0 -6 -9 -11 -20 -11 -11 0 -20 4 -20 8 0
4 -7 5 -15 2 -8 -4 -12 -11 -8 -18 4 -8 2 -8 -7 1 -7 6 -19 9 -26 6 -8 -3 -14
0 -14 7 0 10 -4 9 -16 -1 -13 -10 -17 -10 -25 2 -5 8 -9 9 -9 3 0 -6 -7 -11
-15 -11 -8 0 -15 5 -15 11 0 6 -5 4 -10 -4 -8 -13 -10 -13 -10 -1 0 11 -4 9
-15 -5 -11 -13 -14 -14 -13 -4 2 9 -3 13 -12 11 -29 -7 -132 -6 -137 2 -3 4
-12 2 -21 -5 -12 -11 -16 -11 -20 0 -3 10 -7 10 -19 1 -12 -10 -16 -10 -24 2
-5 8 -9 9 -9 3 0 -6 -7 -11 -15 -11 -8 0 -15 5 -15 11 0 6 -5 4 -10 -4 -8 -13
-10 -13 -10 -1 0 11 -4 10 -16 -5 -8 -10 -13 -14 -10 -8 6 12 -29 26 -39 16
-10 -11 -35 -10 -35 0 0 6 -7 4 -17 -3 -13 -11 -17 -11 -21 -1 -3 10 -7 10
-19 1 -12 -10 -16 -10 -24 2 -6 10 -9 11 -9 1 0 -7 -4 -11 -9 -7 -5 3 -13 0
-17 -6 -5 -9 -11 -7 -21 6 -9 14 -13 15 -13 4 0 -12 -2 -12 -10 1 -5 8 -10 10
-10 5 0 -6 -9 -11 -20 -11 -11 0 -20 4 -20 8 0 4 -7 5 -15 2 -8 -4 -12 -11 -8
-18 4 -8 2 -8 -7 1 -7 6 -19 9 -26 6 -8 -3 -14 0 -14 7 0 10 -4 9 -16 -1 -13
-10 -17 -10 -25 2 -5 8 -9 9 -9 3 0 -6 -7 -11 -15 -11 -8 0 -15 5 -15 11 0 6
-5 4 -10 -4 -8 -13 -10 -13 -10 -1 0 11 -4 10 -16 -5 -8 -10 -13 -14 -10 -8 6
12 -29 26 -39 16 -10 -11 -35 -10 -35 0 0 6 -7 4 -17 -3 -13 -11 -17 -11 -21
-1 -3 10 -7 10 -19 1 -12 -10 -16 -10 -24 2 -6 10 -9 11 -9 1 0 -7 -4 -11 -9
-7 -5 3 -13 0 -17 -6 -5 -9 -11 -7 -21 6 -9 14 -13 15 -13 4 0 -12 -2 -12 -10
1 -5 8 -10 10 -10 5 0 -6 -9 -11 -20 -11 -11 0 -20 4 -20 8 0 4 -7 5 -15 2 -8
-4 -12 -11 -8 -18 4 -8 2 -8 -7 1 -7 6 -19 9 -26 6 -8 -3 -14 0 -14 7 0 10 -4
9 -16 -1 -13 -10 -17 -10 -25 2 -5 8 -9 9 -9 3 0 -6 -7 -11 -15 -11 -8 0 -15
5 -15 11 0 6 -5 4 -10 -4 -8 -13 -10 -13 -10 -1 0 11 -4 10 -13 -4 -11 -14
-16 -15 -22 -5 -6 9 -4 11 5 5 9 -5 11 -4 6 3 -4 7 -14 9 -24 4 -20 -9 -143
-9 -158 1 -6 3 -14 3 -18 -1 -11 -10 -70 -8 -78 3 -5 6 -8 5 -8 -4 0 -10 -3
-11 -14 -2 -10 8 -16 9 -21 1 -3 -5 -11 -10 -16 -10 -6 0 -8 4 -5 9 6 9 -29 7
-58 -5 -15 -6 -17 -4 -11 6 6 9 4 11 -5 5 -18 -11 -80 -13 -86 -3 -3 5 -11 5
-17 1 -18 -11 -71 -10 -79 2 -5 6 -8 5 -8 -4 0 -10 -3 -11 -14 -2 -10 8 -16 9
-21 1 -3 -5 -11 -10 -16 -10 -6 0 -8 4 -5 9 6 9 -29 7 -58 -5 -15 -6 -17 -4
-11 6 6 9 4 11 -5 5 -18 -11 -80 -13 -86 -3 -3 5 -11 5 -17 1 -18 -11 -71 -10
-79 2 -5 6 -8 5 -8 -4 0 -10 -3 -11 -14 -2 -10 8 -16 9 -21 1 -3 -5 -11 -10
-16 -10 -6 0 -8 4 -5 9 6 9 -29 7 -58 -5 -15 -6 -17 -4 -11 6 6 9 4 11 -5 5
-18 -11 -80 -13 -86 -3 -3 5 -11 5 -17 1 -18 -11 -71 -10 -79 2 -5 6 -8 5 -8
-4 0 -10 -3 -11 -14 -2 -10 8 -16 9 -21 1 -3 -5 -11 -10 -16 -10 -6 0 -8 4 -5
9 6 9 -29 7 -58 -5 -14 -5 -17 -4 -11 5 5 10 3 11 -11 4 -11 -5 -32 -9 -49 -8
-16 1 -35 -2 -42 -7 -7 -6 -15 -3 -22 9 -8 14 -10 15 -11 3 0 -13 -1 -13 -10
0 -5 8 -10 10 -10 5 0 -6 -9 -11 -20 -11 -11 0 -20 4 -20 8 0 4 -7 5 -15 2 -8
-4 -12 -11 -8 -18 4 -8 2 -8 -7 1 -7 6 -19 9 -26 6 -8 -3 -14 0 -14 7 0 10 -4
9 -16 -1 -13 -10 -17 -10 -25 2 -5 8 -9 9 -9 3 0 -6 -7 -11 -15 -11 -8 0 -15
5 -15 11 0 6 -5 4 -10 -4 -8 -13 -10 -13 -10 -1 0 11 -4 10 -16 -5 -8 -10 -13
-14 -10 -8 6 12 -29 26 -39 16 -10 -11 -35 -10 -35 0 0 6 -7 4 -17 -3 -13 -11
-17 -11 -21 -1 -3 10 -7 10 -19 1 -12 -10 -16 -10 -24 2 -6 10 -9 11 -9 1 0
-7 -4 -11 -9 -7 -5 3 -13 0 -17 -6 -5 -9 -11 -7 -21 6 -9 14 -13 15 -13 4 0
-12 -2 -12 -10 1 -5 8 -10 10 -10 5 0 -6 -9 -11 -20 -11 -11 0 -20 4 -20 8 0
4 -7 5 -15 2 -8 -4 -12 -11 -8 -18 4 -8 2 -8 -7 1 -7 6 -19 9 -26 6 -8 -3 -14
0 -14 7 0 10 -4 9 -16 -1 -13 -10 -17 -10 -25 2 -5 8 -9 9 -9 3 0 -6 -7 -11
-15 -11 -8 0 -15 5 -15 11 0 6 -5 4 -10 -4 -8 -13 -10 -13 -10 -1 0 11 -4 10
-16 -5 -8 -10 -13 -14 -10 -8 6 12 -29 26 -39 16 -10 -11 -35 -10 -35 0 0 6
-7 4 -17 -3 -13 -11 -17 -11 -21 -1 -3 10 -7 10 -19 1 -12 -10 -16 -10 -24 2
-6 10 -9 11 -9 1 0 -7 -4 -11 -9 -7 -5 3 -13 0 -17 -6 -5 -9 -11 -7 -21 6 -9
14 -13 15 -13 4 0 -12 -2 -12 -10 1 -5 8 -10 10 -10 5 0 -6 -9 -11 -20 -11
-11 0 -20 4 -20 8 0 4 -7 5 -15 2 -8 -4 -12 -11 -8 -18 4 -8 2 -8 -7 1 -7 6
-19 9 -26 6 -8 -3 -14 0 -14 7 0 10 -4 9 -16 -1 -13 -10 -17 -10 -25 2 -5 8
-9 9 -9 3 0 -6 -7 -11 -15 -11 -8 0 -15 5 -15 11 0 6 -5 4 -10 -4 -8 -13 -10
-13 -10 -1 0 11 -4 10 -16 -5 -8 -10 -13 -14 -10 -8 6 12 -29 26 -39 16 -10
-11 -35 -10 -35 0 0 6 -7 4 -17 -3 -13 -11 -17 -11 -21 -1 -3 10 -7 10 -19 1
-12 -10 -16 -10 -24 2 -6 10 -9 11 -9 1 0 -7 -4 -11 -9 -7 -5 3 -13 0 -17 -6
-5 -9 -11 -7 -21 6 -9 14 -13 15 -13 4 0 -12 -2 -12 -10 1 -5 8 -10 10 -10 5
0 -6 -9 -11 -20 -11 -11 0 -20 4 -20 8 0 4 -7 5 -15 2 -8 -4 -12 -11 -8 -18 4
-8 2 -8 -7 1 -7 6 -19 9 -26 6 -8 -3 -14 0 -14 7 0 10 -4 9 -16 -1 -13 -10
-17 -10 -25 2 -5 8 -9 9 -9 3 0 -6 -7 -11 -15 -11 -8 0 -15 5 -15 11 0 6 -5 4
-10 -4 -8 -13 -10 -13 -10 -1 0 11 -4 10 -16 -5 -8 -10 -13 -14 -10 -8 6 12
-29 26 -39 16 -10 -11 -35 -10 -35 0 0 6 -7 4 -17 -3 -13 -11 -17 -11 -21 -1
-3 10 -7 10 -19 1 -12 -10 -16 -10 -24 2 -6 10 -9 11 -9 1 0 -7 -4 -11 -9 -7
-5 3 -13 0 -17 -6 -5 -9 -11 -7 -21 6 -9 14 -13 15 -13 4 0 -12 -2 -12 -10 1
-5 8 -10 10 -10 5 0 -6 -9 -11 -20 -11 -11 0 -20 4 -20 8 0 4 -7 5 -15 2 -8
-4 -12 -11 -8 -18 4 -8 2 -8 -7 1 -7 6 -19 9 -26 6 -8 -3 -14 0 -14 7 0 10 -4
9 -16 -1 -13 -10 -17 -10 -25 2 -5 8 -9 9 -9 3 0 -6 -7 -11 -15 -11 -8 0 -15
5 -15 11 0 6 -5 4 -10 -4 -8 -13 -10 -13 -10 -1 0 11 -4 9 -15 -5 -8 -10 -14
-14 -13 -9 3 10 -4 15 -23 15 -5 0 -7 -5 -3 -12 5 -8 3 -8 -7 -2 -8 5 -34 9
-60 10 -25 0 -51 4 -59 9 -9 5 -11 4 -6 -3 4 -7 2 -12 -3 -12 -6 0 -11 5 -11
12 0 6 -7 3 -16 -8 -8 -10 -12 -13 -8 -5 5 11 2 13 -14 9 -13 -4 -22 -1 -22 5
0 8 -3 8 -8 2 -10 -14 -55 -18 -46 -4 4 7 -1 7 -15 -1 -16 -8 -26 -8 -35 -1
-7 6 -16 8 -20 4 -11 -11 -70 -9 -78 2 -5 6 -8 5 -8 -4 0 -10 -3 -11 -14 -2
-10 9 -16 9 -21 1 -5 -8 -10 -8 -20 0 -8 6 -16 7 -19 2z m6995 -1569 c13 -16
12 -17 -3 -4 -17 13 -22 21 -14 21 2 0 10 -8 17 -17z m-951 -553 c0 -5 -5 -10
-11 -10 -5 0 -7 5 -4 10 3 6 8 10 11 10 2 0 4 -4 4 -10z m-12297 -1215 c-3 -9
-8 -14 -10 -11 -3 3 -2 9 2 15 9 16 15 13 8 -4z m-273 -389 c0 -2 -8 -10 -17
-17 -16 -13 -17 -12 -4 4 13 16 21 21 21 13z m10270 -1736 c0 -5 -5 -10 -11
-10 -5 0 -7 5 -4 10 3 6 8 10 11 10 2 0 4 -4 4 -10z m7615 -980 c3 -5 1 -10
-4 -10 -6 0 -11 5 -11 10 0 6 2 10 4 10 3 0 8 -4 11 -10z m-19825 -104 c0 -2
-8 -10 -17 -17 -16 -13 -17 -12 -4 4 13 16 21 21 21 13z m11120 -510 c0 -2 -7
-9 -15 -16 -13 -11 -14 -10 -9 4 5 14 24 23 24 12z m8800 -292 c0 -8 -19 -13
-24 -6 -3 5 1 9 9 9 8 0 15 -2 15 -3z"/>
<path d="M16870 12239 c0 -5 5 -7 10 -4 6 3 10 8 10 11 0 2 -4 4 -10 4 -5 0
-10 -5 -10 -11z"/>
<path d="M14190 10920 c0 -5 5 -10 11 -10 5 0 7 5 4 10 -3 6 -8 10 -11 10 -2
0 -4 -4 -4 -10z"/>
<path d="M16474 9354 c7 -15 -23 -23 -49 -14 -11 4 -26 3 -32 -2 -9 -7 -13 -7
-13 1 0 9 -5 9 -20 1 -15 -8 -20 -8 -20 1 0 9 -3 9 -14 0 -10 -8 -16 -9 -21
-1 -4 7 -12 7 -26 0 -14 -8 -19 -7 -19 1 0 8 -4 8 -15 -1 -12 -10 -15 -10 -15
1 0 11 -2 11 -10 -1 -5 -8 -10 -10 -10 -4 0 13 -62 13 -72 -1 -5 -6 -8 -5 -8
4 0 11 -3 11 -15 1 -12 -10 -15 -10 -15 0 0 10 -3 10 -15 0 -11 -9 -15 -9 -15
-1 0 8 -5 9 -19 1 -14 -7 -22 -7 -26 0 -5 8 -11 7 -21 -1 -11 -9 -14 -8 -14 2
0 11 -2 11 -10 -1 -5 -8 -10 -10 -10 -3 0 12 -17 12 -37 0 -8 -5 -13 -3 -13 4
0 8 -4 8 -15 -1 -12 -10 -15 -10 -15 1 0 11 -2 11 -10 -1 -9 -13 -10 -13 -10
0 0 13 -1 13 -10 0 -9 -13 -10 -13 -10 0 0 13 -1 13 -10 0 -9 -13 -10 -13 -10
0 0 13 -1 13 -10 0 -5 -8 -10 -10 -10 -3 0 12 -17 12 -37 0 -6 -4 -15 -2 -19
4 -4 8 -9 7 -15 -2 -7 -12 -9 -12 -9 0 0 11 -3 11 -15 1 -11 -9 -15 -9 -15 -1
0 7 -5 9 -10 6 -6 -4 -8 -11 -5 -16 5 -8 -15 -13 -37 -10 -3 0 -5 -11 -3 -24
1 -14 -5 -31 -14 -37 -15 -12 -15 -11 -1 7 14 18 14 19 -2 7 -16 -13 -18 -35
-5 -48 4 -4 2 -13 -4 -20 -7 -8 -7 -14 1 -19 6 -3 7 -11 4 -17 -11 -18 -12
-98 -1 -91 6 3 7 1 3 -6 -14 -21 -17 -61 -5 -61 7 0 8 -5 3 -12 -5 -7 -9 -46
-8 -85 1 -48 -3 -73 -10 -73 -6 0 -5 -4 3 -9 8 -5 15 -19 16 -30 1 -16 -1 -18
-12 -10 -10 9 -10 4 2 -24 8 -19 12 -37 9 -40 -10 -10 -11 -57 -2 -63 5 -3 4
-11 -2 -19 -8 -10 -8 -15 0 -20 8 -5 8 -10 0 -20 -8 -10 -8 -15 0 -20 8 -5 8
-10 0 -20 -8 -9 -8 -15 0 -20 6 -4 7 -13 1 -23 -10 -20 -3 -45 10 -36 12 7 7
-19 -4 -27 -5 -4 3 -9 18 -13 23 -6 25 -9 13 -23 -11 -15 -10 -16 10 -11 12 4
20 2 16 -3 -3 -5 1 -9 8 -10 60 -4 88 -4 88 2 0 8 32 5 48 -5 7 -4 19 -2 27 4
12 10 15 10 15 0 0 -10 3 -10 15 0 12 10 15 10 15 -1 0 -11 2 -11 9 0 8 12 12
12 24 2 12 -9 16 -9 20 1 4 10 8 10 16 -2 10 -13 11 -13 11 0 0 12 2 12 9 1 6
-9 10 -10 16 -2 5 9 11 9 23 -1 12 -10 14 -10 8 0 -4 6 -2 12 3 12 6 0 11 -5
11 -11 0 -6 5 -7 13 -2 19 12 37 12 37 1 0 -6 7 -4 17 3 15 12 16 12 8 -1 -8
-13 -7 -13 8 -1 14 11 17 11 17 0 0 -11 2 -11 10 1 9 13 10 13 10 0 0 -9 3
-11 8 -5 8 12 32 13 50 1 7 -4 19 -2 27 4 12 10 15 10 15 0 0 -10 3 -10 15 0
12 10 15 10 15 -1 0 -12 2 -12 9 -1 9 16 20 15 40 -1 12 -9 13 -9 7 1 -4 6 -2
12 3 12 6 0 11 -5 11 -11 0 -6 5 -7 13 -2 19 12 37 12 37 1 0 -6 7 -4 17 3 15
12 16 12 8 -1 -8 -13 -7 -13 8 -1 14 11 17 11 17 0 0 -11 2 -11 10 1 9 13 10
13 10 0 0 -9 3 -11 8 -5 4 6 18 16 32 23 14 7 17 10 7 7 -10 -3 -15 -1 -12 5
3 6 13 10 21 10 8 0 13 3 13 8 -3 20 2 25 12 12 9 -12 10 -12 5 3 -3 10 -1 28
5 39 7 13 7 18 1 14 -6 -4 -10 2 -9 14 1 11 4 20 8 20 12 0 3 31 -12 41 -8 5
-9 9 -2 9 6 0 10 8 8 18 -1 9 2 22 7 29 5 7 5 14 -2 18 -7 4 -7 13 1 27 10 18
9 20 -5 15 -8 -3 -18 -1 -22 5 -4 6 -3 8 2 5 6 -3 16 -2 24 4 11 6 11 9 2 9
-10 0 -10 5 -1 22 10 18 9 20 -5 15 -12 -5 -15 -3 -9 6 4 6 8 21 8 32 0 11 4
26 8 33 5 7 3 12 -3 12 -7 0 -8 6 0 19 6 13 7 22 0 26 -6 4 -6 15 0 31 6 14 6
23 1 20 -10 -7 -8 75 3 92 4 7 2 12 -3 12 -6 0 -11 5 -11 11 0 5 4 8 8 5 5 -3
9 2 9 10 0 9 -6 13 -14 10 -9 -4 -11 -2 -6 7 4 6 8 21 8 32 0 11 4 26 8 33 5
7 3 12 -3 12 -7 0 -8 6 0 19 5 11 6 22 2 25 -5 3 -7 21 -6 40 2 20 0 35 -4 35
-20 -3 -32 2 -27 11 3 6 1 10 -5 10 -6 0 -8 5 -4 13 5 7 2 7 -10 -2 -9 -8 -16
-10 -14 -4 2 6 0 10 -4 10 -4 -1 -14 7 -23 18 -9 11 -14 15 -11 9z"/>
<path d="M14480 9329 c0 -19 -2 -21 -10 -9 -8 13 -10 12 -10 -2 0 -10 -4 -18
-9 -18 -5 0 -11 -9 -14 -21 -3 -12 -9 -19 -14 -16 -4 3 -8 -6 -8 -19 0 -13 4
-24 9 -24 5 0 3 -6 -3 -14 -8 -10 -9 -16 -1 -21 6 -3 7 -12 3 -18 -12 -19 -12
-37 -2 -37 6 0 7 -5 3 -12 -11 -17 -11 -58 -1 -58 5 0 4 -6 -2 -14 -8 -10 -9
-16 -1 -21 6 -3 7 -12 3 -18 -12 -19 -12 -37 -2 -37 6 0 7 -5 3 -12 -11 -17
-11 -58 -1 -58 5 0 4 -6 -2 -14 -8 -10 -9 -16 -1 -21 6 -3 7 -12 3 -18 -12
-19 -12 -37 -2 -37 6 0 7 -5 3 -12 -11 -17 -11 -58 -1 -58 5 0 4 -6 -2 -14 -8
-10 -9 -16 -1 -21 6 -3 7 -12 3 -18 -12 -19 -12 -37 -2 -37 6 0 7 -5 3 -12
-10 -16 -13 -68 -5 -68 4 0 8 -7 8 -15 0 -8 -4 -12 -8 -9 -4 2 -7 -5 -6 -16 1
-11 5 -20 10 -20 5 0 3 -8 -4 -17 -10 -11 -10 -14 -1 -9 7 4 12 2 12 -4 0 -6
5 -8 13 -4 8 5 8 2 -2 -9 -9 -12 -10 -17 -2 -17 7 0 9 -4 6 -10 -3 -5 -1 -10
5 -10 6 0 8 -5 4 -12 -6 -10 -4 -10 8 0 14 11 17 10 20 -4 3 -17 58 -28 58
-12 0 11 23 6 32 -7 5 -6 8 -6 8 1 0 12 29 12 48 0 7 -4 19 -2 27 4 12 10 15
10 15 0 0 -10 3 -10 15 0 12 10 15 10 15 -1 0 -11 2 -11 9 0 8 12 12 12 24 2
12 -9 16 -9 20 1 4 10 8 10 16 -2 10 -13 11 -13 11 0 0 13 1 13 10 0 8 -12 10
-12 10 -1 0 10 3 11 14 2 11 -9 15 -9 18 1 4 10 8 10 21 -1 14 -11 17 -11 17
0 0 11 2 11 10 -1 5 -8 10 -10 10 -4 0 14 32 13 42 -1 5 -6 8 -6 8 2 0 12 17
12 37 0 6 -4 14 -1 17 5 5 10 7 10 12 1 4 -9 13 -9 32 -2 18 7 28 7 30 0 2 -6
9 -8 14 -4 17 10 68 12 62 2 -7 -13 19 -7 29 6 4 6 11 4 17 -5 8 -12 10 -12
10 -1 0 10 3 11 14 2 11 -9 15 -9 19 1 4 10 8 10 16 -2 10 -13 11 -13 11 0 0
13 1 13 10 0 8 -12 10 -12 10 -1 0 10 3 11 14 2 11 -9 16 -9 22 0 5 8 3 9 -6
4 -9 -6 -11 -4 -6 4 5 7 15 10 23 7 8 -3 12 -2 9 2 -2 4 2 16 10 27 8 10 14
15 14 9 0 -5 7 4 16 21 8 16 12 31 7 32 -10 4 -9 405 1 421 3 6 2 14 -4 17 -8
5 -8 11 0 20 8 10 8 15 0 20 -8 5 -8 10 0 20 8 10 8 15 0 20 -8 5 -8 10 0 20
8 10 8 15 0 20 -8 5 -8 10 0 20 8 10 8 15 0 20 -8 5 -8 10 0 20 8 10 8 15 0
20 -8 5 -8 10 0 20 8 10 8 15 0 20 -8 5 -8 11 -1 19 6 7 7 16 3 20 -7 7 -8 11
-11 37 0 5 -5 7 -11 4 -5 -3 -7 0 -5 8 6 13 -30 62 -45 62 -5 0 -12 3 -16 7
-4 4 -13 3 -21 -3 -9 -8 -13 -8 -13 0 0 7 -8 8 -24 1 -17 -6 -26 -5 -30 3 -5
9 -7 9 -12 0 -4 -8 -13 -9 -30 -3 -17 7 -24 6 -24 -3 0 -8 -3 -7 -9 2 -8 12
-12 12 -25 2 -13 -11 -16 -11 -16 0 0 12 -2 12 -9 0 -7 -11 -9 -11 -13 0 -4
12 -7 12 -21 0 -14 -11 -17 -11 -17 0 0 11 -2 11 -10 -1 -5 -8 -10 -10 -10 -3
0 12 -17 12 -37 0 -8 -5 -13 -3 -13 4 0 8 -4 8 -15 -1 -12 -10 -15 -10 -15 1
0 11 -2 11 -10 -1 -9 -13 -10 -13 -10 0 0 13 -1 13 -10 0 -9 -13 -10 -13 -10
0 0 13 -1 13 -10 0 -9 -13 -10 -13 -10 0 0 13 -1 13 -10 0 -5 -8 -10 -10 -10
-3 0 12 -18 12 -39 -1 -8 -5 -16 -4 -21 4 -6 9 -12 9 -29 1 -16 -9 -21 -9 -21
0 0 8 -4 8 -15 -1 -11 -9 -15 -9 -15 -1 0 8 -5 9 -19 1 -14 -7 -22 -7 -26 0
-5 8 -11 7 -21 -1 -11 -9 -14 -8 -14 2 0 11 -2 11 -10 -1 -5 -8 -10 -10 -10
-3 0 12 -18 12 -39 -1 -8 -5 -16 -4 -20 2 -9 15 -52 3 -45 -12 3 -6 -2 -2 -10
8 -16 19 -16 19 -16 -5z"/>
<path d="M860 8240 c-9 -6 -10 -10 -3 -10 6 0 15 5 18 10 8 12 4 12 -15 0z"/>
<path d="M14920 8206 c0 -15 -3 -16 -15 -6 -12 10 -15 10 -15 -1 0 -12 -2 -12
-9 0 -6 9 -10 10 -16 2 -5 -9 -10 -9 -20 -1 -10 8 -14 7 -18 -2 -4 -11 -6 -11
-6 0 -1 9 -6 10 -20 2 -14 -7 -22 -7 -27 1 -4 8 -9 7 -15 -2 -5 -8 -9 -9 -9
-3 0 6 -7 11 -15 11 -8 0 -12 -4 -9 -9 3 -4 0 -8 -5 -8 -6 0 -11 6 -11 13 0 9
-3 8 -9 -2 -7 -11 -10 -11 -15 0 -5 11 -7 11 -12 1 -3 -6 -11 -9 -17 -5 -20
12 -37 12 -37 0 0 -7 -5 -6 -10 3 -8 12 -11 13 -19 1 -6 -9 -10 -10 -16 -2 -5
9 -11 9 -23 -1 -13 -11 -15 -11 -7 2 4 8 -3 5 -16 -7 -16 -15 -29 -19 -39 -13
-11 6 -23 1 -39 -16 -14 -14 -18 -24 -10 -24 8 0 6 -5 -6 -13 -10 -8 -15 -18
-12 -24 3 -5 0 -21 -8 -36 -11 -22 -11 -25 1 -20 14 5 19 -8 7 -20 -11 -12
-12 -57 -1 -57 6 0 6 -6 -2 -15 -10 -12 -10 -15 0 -15 10 0 10 -3 1 -14 -8
-10 -9 -16 -1 -21 6 -3 7 -12 3 -18 -12 -19 -12 -37 -2 -37 6 0 7 -5 3 -12
-11 -17 -11 -58 -1 -58 5 0 4 -6 -2 -14 -8 -10 -9 -16 -1 -21 6 -3 7 -12 3
-18 -12 -19 -12 -37 -2 -37 6 0 7 -5 3 -12 -11 -17 -11 -58 -1 -58 5 0 4 -6
-2 -14 -8 -10 -9 -16 -1 -21 6 -3 7 -12 3 -18 -12 -19 -12 -37 -2 -37 6 0 7
-5 3 -12 -11 -17 -11 -58 -1 -58 5 0 4 -6 -2 -14 -8 -10 -9 -16 -1 -21 6 -3 7
-12 3 -18 -12 -19 -12 -37 -1 -37 6 0 5 -6 -2 -15 -9 -11 -9 -15 -1 -15 7 0 9
-5 6 -10 -3 -6 1 -13 10 -16 13 -6 14 -8 3 -15 -10 -7 -11 -9 0 -9 7 0 10 -5
7 -10 -4 -6 -1 -9 7 -8 7 2 12 -3 10 -10 -2 -10 2 -10 19 -1 19 10 21 9 16 -5
-4 -10 -3 -14 2 -11 5 3 12 1 16 -5 4 -7 12 -7 26 0 14 8 19 7 19 -1 0 -8 4
-8 15 1 12 10 15 10 15 -1 0 -12 2 -12 9 0 6 9 11 10 15 2 5 -8 13 -8 26 -1
13 7 21 7 25 0 5 -8 11 -7 21 1 11 9 14 8 14 -2 0 -9 3 -10 8 -4 8 12 27 13
38 3 4 -4 13 -3 20 3 8 7 14 7 19 -1 5 -8 11 -8 21 1 11 9 14 8 14 -2 0 -12 2
-12 9 0 6 9 11 10 15 2 4 -7 15 -7 31 -1 16 6 27 6 31 -1 4 -7 10 -6 19 1 10
8 15 8 20 0 5 -8 11 -8 21 1 11 9 14 8 14 -2 0 -12 2 -12 9 0 6 9 11 10 15 2
5 -7 15 -7 32 -1 33 13 37 13 28 -2 -5 -9 -2 -9 9 1 13 10 17 10 17 1 0 -10 3
-10 14 -1 10 9 16 9 21 1 5 -8 11 -8 21 1 11 9 14 8 14 -2 0 -9 3 -10 8 -4 10
14 62 15 62 1 0 -6 4 -5 9 3 6 9 11 10 15 3 4 -6 13 -9 21 -6 8 4 12 11 8 18
-4 6 2 4 12 -4 10 -8 16 -10 13 -5 -4 6 2 17 14 24 15 9 18 10 13 0 -5 -8 -4
-10 3 -5 7 4 12 13 12 21 0 7 6 16 13 18 8 4 7 6 -3 7 -10 0 -6 6 10 15 14 8
21 14 15 15 -11 0 -12 290 -1 308 3 6 2 14 -4 17 -8 5 -8 11 0 20 8 10 8 15 0
20 -8 5 -8 10 0 20 8 10 8 15 0 20 -8 5 -8 10 0 20 8 10 8 15 0 20 -8 5 -8 10
0 20 8 10 8 15 0 20 -8 5 -8 10 0 20 8 10 8 15 0 20 -8 5 -8 10 0 20 8 10 8
15 0 20 -8 5 -8 10 0 20 8 10 8 15 0 20 -8 5 -8 10 0 20 8 10 8 15 0 20 -8 5
-8 10 0 20 8 10 8 15 0 20 -8 5 -8 10 0 20 8 10 8 15 0 20 -8 5 -8 11 -1 19 8
9 5 18 -8 33 -15 16 -17 23 -8 32 9 9 8 11 -6 5 -13 -5 -16 -2 -11 9 4 11 0
15 -13 13 -10 -2 -24 1 -30 7 -7 5 -13 6 -13 2 0 -5 -10 0 -22 11 -13 12 -18
13 -13 4 8 -13 7 -13 -8 -1 -14 11 -17 11 -17 0 0 -12 -2 -12 -9 0 -6 10 -10
10 -16 1 -6 -9 -10 -9 -17 1 -8 11 -11 11 -15 1 -4 -10 -8 -10 -19 -1 -11 9
-14 9 -14 -1 0 -10 -3 -10 -15 0 -12 10 -15 10 -15 -1 0 -12 -2 -12 -9 0 -6 9
-11 10 -15 2 -4 -6 -13 -8 -19 -4 -19 11 -47 11 -47 -1 0 -6 -5 -4 -10 4 -9
13 -10 13 -10 0 0 -9 -3 -11 -8 -5 -8 12 -22 13 -39 2 -7 -4 -16 0 -22 10 -10
17 -10 17 -11 -1z"/>
<path d="M15880 8206 c0 -15 -3 -16 -14 -7 -11 9 -15 9 -19 -1 -4 -10 -6 -10
-6 1 -1 11 -4 11 -16 1 -12 -10 -15 -10 -15 0 0 9 -4 9 -17 -1 -11 -10 -14
-10 -9 -1 9 15 -6 16 -22 0 -7 -7 -12 -8 -12 -2 0 6 -6 11 -14 11 -8 0 -14 -5
-13 -11 1 -6 -4 -10 -10 -8 -7 1 -13 -4 -13 -10 0 -10 -2 -10 -8 0 -5 7 -16
10 -25 6 -9 -3 -14 -10 -11 -15 3 -5 -3 -9 -13 -9 -15 0 -16 -2 -3 -10 13 -9
7 -14 -12 -11 -4 0 -4 -7 -1 -16 5 -12 3 -14 -8 -8 -12 8 -12 6 0 -8 7 -9 9
-17 4 -17 -5 0 -9 -9 -10 -20 -1 -11 4 -20 10 -20 8 0 8 -3 -1 -9 -8 -4 -14
-12 -14 -16 0 -4 6 -12 14 -16 11 -7 11 -9 -1 -9 -10 0 -11 -3 -2 -14 9 -10 9
-16 1 -21 -8 -5 -8 -10 0 -20 8 -10 8 -15 0 -20 -8 -5 -8 -11 -1 -19 6 -7 8
-16 5 -19 -11 -11 -12 -97 -1 -90 6 3 7 1 3 -6 -14 -21 -17 -61 -5 -61 7 0 8
-5 3 -12 -5 -7 -9 -46 -8 -85 1 -48 -3 -73 -10 -73 -6 0 -5 -4 3 -9 8 -5 15
-19 16 -30 1 -17 -1 -19 -13 -8 -13 11 -14 9 -2 -13 8 -14 13 -29 11 -35 -10
-32 -10 -55 -1 -55 6 0 8 -5 4 -12 -10 -16 -11 -58 -2 -58 4 0 7 -3 7 -7 -4
-26 4 -42 22 -48 15 -5 17 -10 10 -19 -8 -9 -7 -13 4 -13 8 0 15 5 15 11 0 7
3 7 8 1 12 -17 49 -34 57 -27 10 10 29 9 37 -3 5 -7 8 -7 8 1 0 11 59 12 78 1
6 -4 14 -3 17 3 5 8 11 8 20 0 10 -8 15 -8 20 1 6 8 10 7 16 -2 5 -8 9 -9 9
-3 0 11 59 12 78 1 6 -4 14 -2 18 4 4 8 9 7 15 -2 5 -8 9 -9 9 -4 0 6 9 11 20
12 13 1 18 -2 13 -10 -5 -9 -3 -9 8 0 12 10 18 10 27 1 9 -9 12 -9 12 0 0 7 5
12 11 12 5 0 7 -6 3 -12 -5 -9 -2 -9 9 1 13 10 17 10 17 1 0 -10 3 -10 15 0
11 9 15 9 15 1 0 -8 5 -9 19 -1 14 7 22 7 26 0 5 -8 11 -7 21 1 11 9 14 8 14
-2 0 -12 2 -12 9 -1 11 19 15 19 34 4 11 -10 17 -10 22 -1 6 8 10 7 16 -2 5
-8 9 -9 9 -4 0 6 9 11 20 12 13 1 18 -2 13 -10 -5 -9 -3 -9 8 0 12 10 18 10
27 1 9 -9 12 -9 12 0 0 7 8 12 18 10 9 -2 16 2 15 9 -2 7 6 10 18 8 16 -3 19
0 15 12 -5 12 -4 13 7 5 11 -10 13 -6 12 18 -1 16 1 29 4 28 18 -2 31 3 31 13
0 5 -4 8 -9 5 -10 -7 -8 75 3 92 4 7 2 12 -3 12 -6 0 -11 5 -11 11 0 5 4 8 8
5 5 -3 9 2 9 10 0 9 -6 13 -14 10 -9 -4 -11 -2 -6 7 4 6 8 21 8 32 0 11 4 26
8 33 5 7 3 12 -3 12 -7 0 -8 6 0 19 5 11 6 22 2 25 -10 6 -9 57 1 73 4 6 3 14
-3 18 -7 4 -6 13 1 27 10 18 9 20 -5 15 -8 -3 -18 -1 -22 5 -4 6 -3 8 2 5 6
-3 16 -2 24 4 11 6 11 9 2 9 -10 0 -10 5 -1 22 10 18 9 20 -5 15 -12 -5 -15
-3 -9 6 4 6 8 21 8 32 0 11 4 26 8 33 5 7 3 12 -3 12 -7 0 -8 6 0 19 7 14 7
22 0 26 -8 5 -8 11 0 20 6 7 7 16 2 19 -10 6 -9 42 1 52 10 11 8 24 -4 24 -5
0 -7 -5 -3 -12 4 -7 3 -8 -5 -4 -6 4 -8 13 -4 19 4 7 8 28 9 47 1 19 0 29 -3
22 -3 -6 -9 -9 -14 -6 -6 4 -6 11 1 19 8 10 6 17 -9 27 -12 8 -18 19 -13 24 4
4 -1 2 -10 -5 -12 -9 -18 -10 -18 -2 0 6 -13 11 -29 11 -16 0 -32 6 -35 13 -5
9 -7 9 -12 -1 -5 -10 -9 -10 -20 -1 -11 9 -14 8 -14 -2 0 -12 -2 -12 -9 0 -6
9 -11 10 -15 2 -4 -6 -13 -8 -19 -4 -20 12 -37 12 -37 0 0 -7 -5 -5 -10 3 -9
13 -10 13 -10 0 0 -13 -1 -13 -11 0 -8 11 -12 12 -16 2 -2 -6 -10 -9 -16 -5
-20 12 -37 12 -37 0 0 -7 -5 -6 -10 3 -8 12 -11 13 -19 1 -6 -9 -11 -10 -15
-2 -4 6 -13 8 -19 4 -21 -13 -47 -10 -47 6 0 11 -3 10 -15 -5 -11 -14 -14 -15
-15 -4 0 13 -1 13 -10 0 -8 -12 -10 -12 -10 -1 0 10 -3 11 -13 2 -8 -6 -17 -8
-21 -4 -11 11 -46 10 -46 -1 0 -6 -5 -4 -10 4 -9 13 -10 13 -10 0 0 -9 -3 -11
-8 -5 -8 12 -22 13 -39 2 -7 -4 -16 0 -22 10 -10 17 -10 17 -11 -1z"/>
<path d="M14506 8193 c-6 -14 -5 -15 5 -6 7 7 10 15 7 18 -3 3 -9 -2 -12 -12z"/>
<path d="M18678 8103 c7 -3 16 -2 19 1 4 3 -2 6 -13 5 -11 0 -14 -3 -6 -6z"/>
</g>
</svg>
